    0
SECTION
    2
ENTITIES
    0
POLYLINE
    8
0
    66
        1
    10
0.000000
    20
0.000000
    30
0.000000
   0
VERTEX
  8
0
   10
27.000000
   20
-0.458988
   30
0.000000
   0
VERTEX
  8
0
   10
26.954844
   20
-0.461373
   30
0.000000
   0
VERTEX
  8
0
   10
26.909689
   20
-0.463737
   30
0.000000
   0
VERTEX
  8
0
   10
26.864532
   20
-0.466083
   30
0.000000
   0
VERTEX
  8
0
   10
26.819372
   20
-0.468414
   30
0.000000
   0
VERTEX
  8
0
   10
26.774214
   20
-0.470724
   30
0.000000
   0
VERTEX
  8
0
   10
26.729055
   20
-0.473019
   30
0.000000
   0
VERTEX
  8
0
   10
26.683893
   20
-0.475293
   30
0.000000
   0
VERTEX
  8
0
   10
26.638731
   20
-0.477549
   30
0.000000
   0
VERTEX
  8
0
   10
26.593569
   20
-0.479784
   30
0.000000
   0
VERTEX
  8
0
   10
26.548405
   20
-0.482004
   30
0.000000
   0
VERTEX
  8
0
   10
26.503242
   20
-0.484203
   30
0.000000
   0
VERTEX
  8
0
   10
26.458075
   20
-0.486384
   30
0.000000
   0
VERTEX
  8
0
   10
26.412909
   20
-0.488544
   30
0.000000
   0
VERTEX
  8
0
   10
26.367741
   20
-0.490686
   30
0.000000
   0
VERTEX
  8
0
   10
26.322573
   20
-0.492810
   30
0.000000
   0
VERTEX
  8
0
   10
26.277405
   20
-0.494913
   30
0.000000
   0
VERTEX
  8
0
   10
26.232233
   20
-0.496998
   30
0.000000
   0
VERTEX
  8
0
   10
26.187063
   20
-0.499062
   30
0.000000
   0
VERTEX
  8
0
   10
26.141891
   20
-0.501108
   30
0.000000
   0
VERTEX
  8
0
   10
26.096718
   20
-0.503133
   30
0.000000
   0
VERTEX
  8
0
   10
26.051544
   20
-0.505137
   30
0.000000
   0
VERTEX
  8
0
   10
26.006371
   20
-0.507123
   30
0.000000
   0
VERTEX
  8
0
   10
25.961197
   20
-0.509088
   30
0.000000
   0
VERTEX
  8
0
   10
25.916019
   20
-0.511032
   30
0.000000
   0
VERTEX
  8
0
   10
25.870842
   20
-0.512955
   30
0.000000
   0
VERTEX
  8
0
   10
25.825665
   20
-0.514860
   30
0.000000
   0
VERTEX
  8
0
   10
25.780485
   20
-0.516744
   30
0.000000
   0
VERTEX
  8
0
   10
25.735306
   20
-0.518604
   30
0.000000
   0
VERTEX
  8
0
   10
25.690125
   20
-0.520446
   30
0.000000
   0
VERTEX
  8
0
   10
25.644941
   20
-0.522267
   30
0.000000
   0
VERTEX
  8
0
   10
25.599762
   20
-0.524067
   30
0.000000
   0
VERTEX
  8
0
   10
25.554579
   20
-0.525846
   30
0.000000
   0
VERTEX
  8
0
   10
25.509394
   20
-0.527604
   30
0.000000
   0
VERTEX
  8
0
   10
25.464211
   20
-0.529338
   30
0.000000
   0
VERTEX
  8
0
   10
25.419024
   20
-0.531054
   30
0.000000
   0
VERTEX
  8
0
   10
25.373838
   20
-0.532749
   30
0.000000
   0
VERTEX
  8
0
   10
25.328650
   20
-0.534423
   30
0.000000
   0
VERTEX
  8
0
   10
25.283463
   20
-0.536076
   30
0.000000
   0
VERTEX
  8
0
   10
25.238274
   20
-0.537708
   30
0.000000
   0
VERTEX
  8
0
   10
25.193085
   20
-0.539322
   30
0.000000
   0
VERTEX
  8
0
   10
25.147894
   20
-0.540918
   30
0.000000
   0
VERTEX
  8
0
   10
25.102703
   20
-0.542496
   30
0.000000
   0
VERTEX
  8
0
   10
25.057512
   20
-0.544053
   30
0.000000
   0
VERTEX
  8
0
   10
25.012320
   20
-0.545592
   30
0.000000
   0
VERTEX
  8
0
   10
24.967129
   20
-0.547113
   30
0.000000
   0
VERTEX
  8
0
   10
24.921936
   20
-0.548616
   30
0.000000
   0
VERTEX
  8
0
   10
24.876741
   20
-0.550104
   30
0.000000
   0
VERTEX
  8
0
   10
24.831547
   20
-0.551574
   30
0.000000
   0
VERTEX
  8
0
   10
24.786350
   20
-0.553026
   30
0.000000
   0
VERTEX
  8
0
   10
24.741156
   20
-0.554463
   30
0.000000
   0
VERTEX
  8
0
   10
24.695961
   20
-0.555885
   30
0.000000
   0
VERTEX
  8
0
   10
24.650766
   20
-0.557292
   30
0.000000
   0
VERTEX
  8
0
   10
24.605568
   20
-0.558681
   30
0.000000
   0
VERTEX
  8
0
   10
24.560369
   20
-0.560055
   30
0.000000
   0
VERTEX
  8
0
   10
24.515171
   20
-0.561417
   30
0.000000
   0
VERTEX
  8
0
   10
24.469975
   20
-0.562761
   30
0.000000
   0
VERTEX
  8
0
   10
24.424776
   20
-0.564096
   30
0.000000
   0
VERTEX
  8
0
   10
24.379578
   20
-0.565413
   30
0.000000
   0
VERTEX
  8
0
   10
24.334379
   20
-0.566718
   30
0.000000
   0
VERTEX
  8
0
   10
24.289179
   20
-0.568011
   30
0.000000
   0
VERTEX
  8
0
   10
24.243979
   20
-0.569289
   30
0.000000
   0
VERTEX
  8
0
   10
24.198780
   20
-0.570555
   30
0.000000
   0
VERTEX
  8
0
   10
24.153580
   20
-0.571812
   30
0.000000
   0
VERTEX
  8
0
   10
24.108377
   20
-0.573054
   30
0.000000
   0
VERTEX
  8
0
   10
24.063177
   20
-0.574287
   30
0.000000
   0
VERTEX
  8
0
   10
24.017973
   20
-0.575505
   30
0.000000
   0
VERTEX
  8
0
   10
23.972773
   20
-0.576717
   30
0.000000
   0
VERTEX
  8
0
   10
23.927570
   20
-0.577914
   30
0.000000
   0
VERTEX
  8
0
   10
23.882366
   20
-0.579102
   30
0.000000
   0
VERTEX
  8
0
   10
23.837166
   20
-0.580281
   30
0.000000
   0
VERTEX
  8
0
   10
23.791962
   20
-0.581448
   30
0.000000
   0
VERTEX
  8
0
   10
23.746758
   20
-0.582606
   30
0.000000
   0
VERTEX
  8
0
   10
23.701553
   20
-0.583752
   30
0.000000
   0
VERTEX
  8
0
   10
23.656349
   20
-0.584889
   30
0.000000
   0
VERTEX
  8
0
   10
23.611147
   20
-0.586017
   30
0.000000
   0
VERTEX
  8
0
   10
23.565943
   20
-0.587133
   30
0.000000
   0
VERTEX
  8
0
   10
23.520739
   20
-0.588237
   30
0.000000
   0
VERTEX
  8
0
   10
23.475534
   20
-0.589335
   30
0.000000
   0
VERTEX
  8
0
   10
23.430326
   20
-0.590421
   30
0.000000
   0
VERTEX
  8
0
   10
23.385122
   20
-0.591498
   30
0.000000
   0
VERTEX
  8
0
   10
23.339916
   20
-0.592563
   30
0.000000
   0
VERTEX
  8
0
   10
23.294712
   20
-0.593619
   30
0.000000
   0
VERTEX
  8
0
   10
23.249504
   20
-0.594666
   30
0.000000
   0
VERTEX
  8
0
   10
23.204298
   20
-0.595704
   30
0.000000
   0
VERTEX
  8
0
   10
23.159094
   20
-0.596733
   30
0.000000
   0
VERTEX
  8
0
   10
23.113888
   20
-0.597750
   30
0.000000
   0
VERTEX
  8
0
   10
23.068680
   20
-0.598758
   30
0.000000
   0
VERTEX
  8
0
   10
23.023474
   20
-0.599757
   30
0.000000
   0
VERTEX
  8
0
   10
22.978266
   20
-0.600747
   30
0.000000
   0
VERTEX
  8
0
   10
22.933060
   20
-0.601728
   30
0.000000
   0
VERTEX
  8
0
   10
22.887850
   20
-0.602700
   30
0.000000
   0
VERTEX
  8
0
   10
22.842642
   20
-0.603663
   30
0.000000
   0
VERTEX
  8
0
   10
22.797436
   20
-0.604614
   30
0.000000
   0
VERTEX
  8
0
   10
22.752226
   20
-0.605559
   30
0.000000
   0
VERTEX
  8
0
   10
22.707018
   20
-0.606495
   30
0.000000
   0
VERTEX
  8
0
   10
22.661808
   20
-0.607422
   30
0.000000
   0
VERTEX
  8
0
   10
22.616602
   20
-0.608337
   30
0.000000
   0
VERTEX
  8
0
   10
22.571390
   20
-0.609246
   30
0.000000
   0
VERTEX
  8
0
   10
22.526180
   20
-0.610146
   30
0.000000
   0
VERTEX
  8
0
   10
22.480974
   20
-0.611037
   30
0.000000
   0
VERTEX
  8
0
   10
22.435764
   20
-0.611919
   30
0.000000
   0
VERTEX
  8
0
   10
22.390554
   20
-0.612795
   30
0.000000
   0
VERTEX
  8
0
   10
22.345345
   20
-0.613659
   30
0.000000
   0
VERTEX
  8
0
   10
22.300135
   20
-0.614517
   30
0.000000
   0
VERTEX
  8
0
   10
22.254925
   20
-0.615366
   30
0.000000
   0
VERTEX
  8
0
   10
22.209715
   20
-0.616206
   30
0.000000
   0
VERTEX
  8
0
   10
22.164503
   20
-0.617037
   30
0.000000
   0
VERTEX
  8
0
   10
22.119291
   20
-0.617862
   30
0.000000
   0
VERTEX
  8
0
   10
22.074081
   20
-0.618678
   30
0.000000
   0
VERTEX
  8
0
   10
22.028872
   20
-0.619485
   30
0.000000
   0
VERTEX
  8
0
   10
21.983662
   20
-0.620286
   30
0.000000
   0
VERTEX
  8
0
   10
21.938448
   20
-0.621078
   30
0.000000
   0
VERTEX
  8
0
   10
21.893238
   20
-0.621861
   30
0.000000
   0
VERTEX
  8
0
   10
21.848024
   20
-0.622638
   30
0.000000
   0
VERTEX
  8
0
   10
21.802814
   20
-0.623406
   30
0.000000
   0
VERTEX
  8
0
   10
21.757603
   20
-0.624168
   30
0.000000
   0
VERTEX
  8
0
   10
21.712393
   20
-0.624921
   30
0.000000
   0
VERTEX
  8
0
   10
21.667179
   20
-0.625668
   30
0.000000
   0
VERTEX
  8
0
   10
21.621965
   20
-0.626406
   30
0.000000
   0
VERTEX
  8
0
   10
21.576754
   20
-0.627138
   30
0.000000
   0
VERTEX
  8
0
   10
21.531544
   20
-0.627864
   30
0.000000
   0
VERTEX
  8
0
   10
21.486330
   20
-0.628581
   30
0.000000
   0
VERTEX
  8
0
   10
21.441116
   20
-0.629289
   30
0.000000
   0
VERTEX
  8
0
   10
21.395905
   20
-0.629994
   30
0.000000
   0
VERTEX
  8
0
   10
21.350691
   20
-0.630690
   30
0.000000
   0
VERTEX
  8
0
   10
21.305477
   20
-0.631377
   30
0.000000
   0
VERTEX
  8
0
   10
21.260265
   20
-0.632061
   30
0.000000
   0
VERTEX
  8
0
   10
21.215052
   20
-0.632736
   30
0.000000
   0
VERTEX
  8
0
   10
21.169840
   20
-0.633405
   30
0.000000
   0
VERTEX
  8
0
   10
21.124626
   20
-0.634065
   30
0.000000
   0
VERTEX
  8
0
   10
21.079412
   20
-0.634722
   30
0.000000
   0
VERTEX
  8
0
   10
21.034201
   20
-0.635370
   30
0.000000
   0
VERTEX
  8
0
   10
20.988987
   20
-0.636012
   30
0.000000
   0
VERTEX
  8
0
   10
20.943771
   20
-0.636648
   30
0.000000
   0
VERTEX
  8
0
   10
20.898558
   20
-0.637278
   30
0.000000
   0
VERTEX
  8
0
   10
20.853346
   20
-0.637902
   30
0.000000
   0
VERTEX
  8
0
   10
20.808132
   20
-0.638520
   30
0.000000
   0
VERTEX
  8
0
   10
20.762917
   20
-0.639129
   30
0.000000
   0
VERTEX
  8
0
   10
20.717703
   20
-0.639735
   30
0.000000
   0
VERTEX
  8
0
   10
20.672489
   20
-0.640332
   30
0.000000
   0
VERTEX
  8
0
   10
20.627274
   20
-0.640923
   30
0.000000
   0
VERTEX
  8
0
   10
20.582062
   20
-0.641511
   30
0.000000
   0
VERTEX
  8
0
   10
20.536844
   20
-0.642090
   30
0.000000
   0
VERTEX
  8
0
   10
20.491632
   20
-0.642663
   30
0.000000
   0
VERTEX
  8
0
   10
20.446417
   20
-0.643233
   30
0.000000
   0
VERTEX
  8
0
   10
20.401203
   20
-0.643794
   30
0.000000
   0
VERTEX
  8
0
   10
20.355988
   20
-0.644349
   30
0.000000
   0
VERTEX
  8
0
   10
20.310774
   20
-0.644901
   30
0.000000
   0
VERTEX
  8
0
   10
20.265558
   20
-0.645444
   30
0.000000
   0
VERTEX
  8
0
   10
20.220343
   20
-0.645981
   30
0.000000
   0
VERTEX
  8
0
   10
20.175129
   20
-0.646515
   30
0.000000
   0
VERTEX
  8
0
   10
20.129913
   20
-0.647040
   30
0.000000
   0
VERTEX
  8
0
   10
20.084698
   20
-0.647562
   30
0.000000
   0
VERTEX
  8
0
   10
20.039484
   20
-0.648078
   30
0.000000
   0
VERTEX
  8
0
   10
19.994268
   20
-0.648585
   30
0.000000
   0
VERTEX
  8
0
   10
19.949053
   20
-0.649089
   30
0.000000
   0
VERTEX
  8
0
   10
19.903835
   20
-0.649587
   30
0.000000
   0
VERTEX
  8
0
   10
19.858624
   20
-0.650079
   30
0.000000
   0
VERTEX
  8
0
   10
19.813408
   20
-0.650568
   30
0.000000
   0
VERTEX
  8
0
   10
19.768190
   20
-0.651048
   30
0.000000
   0
VERTEX
  8
0
   10
19.722975
   20
-0.651525
   30
0.000000
   0
VERTEX
  8
0
   10
19.677759
   20
-0.651996
   30
0.000000
   0
VERTEX
  8
0
   10
19.632544
   20
-0.652458
   30
0.000000
   0
VERTEX
  8
0
   10
19.587326
   20
-0.652920
   30
0.000000
   0
VERTEX
  8
0
   10
19.542110
   20
-0.653373
   30
0.000000
   0
VERTEX
  8
0
   10
19.496895
   20
-0.653823
   30
0.000000
   0
VERTEX
  8
0
   10
19.451679
   20
-0.654264
   30
0.000000
   0
VERTEX
  8
0
   10
19.406464
   20
-0.654702
   30
0.000000
   0
VERTEX
  8
0
   10
19.361246
   20
-0.655137
   30
0.000000
   0
VERTEX
  8
0
   10
19.316031
   20
-0.655563
   30
0.000000
   0
VERTEX
  8
0
   10
19.270815
   20
-0.655986
   30
0.000000
   0
VERTEX
  8
0
   10
19.225599
   20
-0.656403
   30
0.000000
   0
VERTEX
  8
0
   10
19.180384
   20
-0.656817
   30
0.000000
   0
VERTEX
  8
0
   10
19.135166
   20
-0.657222
   30
0.000000
   0
VERTEX
  8
0
   10
19.089951
   20
-0.657624
   30
0.000000
   0
VERTEX
  8
0
   10
19.044735
   20
-0.658020
   30
0.000000
   0
VERTEX
  8
0
   10
18.999519
   20
-0.658413
   30
0.000000
   0
VERTEX
  8
0
   10
18.954304
   20
-0.658800
   30
0.000000
   0
VERTEX
  8
0
   10
18.909084
   20
-0.659181
   30
0.000000
   0
VERTEX
  8
0
   10
18.863869
   20
-0.659556
   30
0.000000
   0
VERTEX
  8
0
   10
18.818651
   20
-0.659928
   30
0.000000
   0
VERTEX
  8
0
   10
18.773436
   20
-0.660294
   30
0.000000
   0
VERTEX
  8
0
   10
18.728220
   20
-0.660657
   30
0.000000
   0
VERTEX
  8
0
   10
18.683001
   20
-0.661014
   30
0.000000
   0
VERTEX
  8
0
   10
18.637785
   20
-0.661365
   30
0.000000
   0
VERTEX
  8
0
   10
18.592569
   20
-0.661710
   30
0.000000
   0
VERTEX
  8
0
   10
18.547354
   20
-0.662052
   30
0.000000
   0
VERTEX
  8
0
   10
18.502134
   20
-0.662391
   30
0.000000
   0
VERTEX
  8
0
   10
18.456919
   20
-0.662724
   30
0.000000
   0
VERTEX
  8
0
   10
18.411701
   20
-0.663051
   30
0.000000
   0
VERTEX
  8
0
   10
18.366484
   20
-0.663372
   30
0.000000
   0
VERTEX
  8
0
   10
18.321266
   20
-0.663690
   30
0.000000
   0
VERTEX
  8
0
   10
18.276051
   20
-0.664005
   30
0.000000
   0
VERTEX
  8
0
   10
18.230831
   20
-0.664311
   30
0.000000
   0
VERTEX
  8
0
   10
18.185616
   20
-0.664617
   30
0.000000
   0
VERTEX
  8
0
   10
18.140400
   20
-0.664914
   30
0.000000
   0
VERTEX
  8
0
   10
18.095181
   20
-0.665211
   30
0.000000
   0
VERTEX
  8
0
   10
18.049965
   20
-0.665499
   30
0.000000
   0
VERTEX
  8
0
   10
18.004745
   20
-0.665784
   30
0.000000
   0
VERTEX
  8
0
   10
17.959530
   20
-0.666066
   30
0.000000
   0
VERTEX
  8
0
   10
17.914314
   20
-0.666342
   30
0.000000
   0
VERTEX
  8
0
   10
17.869095
   20
-0.666612
   30
0.000000
   0
VERTEX
  8
0
   10
17.823879
   20
-0.666879
   30
0.000000
   0
VERTEX
  8
0
   10
17.778660
   20
-0.667143
   30
0.000000
   0
VERTEX
  8
0
   10
17.733444
   20
-0.667401
   30
0.000000
   0
VERTEX
  8
0
   10
17.688225
   20
-0.667653
   30
0.000000
   0
VERTEX
  8
0
   10
17.643009
   20
-0.667902
   30
0.000000
   0
VERTEX
  8
0
   10
17.597790
   20
-0.668148
   30
0.000000
   0
VERTEX
  8
0
   10
17.552574
   20
-0.668388
   30
0.000000
   0
VERTEX
  8
0
   10
17.507355
   20
-0.668622
   30
0.000000
   0
VERTEX
  8
0
   10
17.462139
   20
-0.668853
   30
0.000000
   0
VERTEX
  8
0
   10
17.416920
   20
-0.669081
   30
0.000000
   0
VERTEX
  8
0
   10
17.371704
   20
-0.669303
   30
0.000000
   0
VERTEX
  8
0
   10
17.326485
   20
-0.669522
   30
0.000000
   0
VERTEX
  8
0
   10
17.281269
   20
-0.669735
   30
0.000000
   0
VERTEX
  8
0
   10
17.236050
   20
-0.669942
   30
0.000000
   0
VERTEX
  8
0
   10
17.190834
   20
-0.670149
   30
0.000000
   0
VERTEX
  8
0
   10
17.145615
   20
-0.670347
   30
0.000000
   0
VERTEX
  8
0
   10
17.100399
   20
-0.670545
   30
0.000000
   0
VERTEX
  8
0
   10
17.055180
   20
-0.670737
   30
0.000000
   0
VERTEX
  8
0
   10
17.009964
   20
-0.670923
   30
0.000000
   0
VERTEX
  8
0
   10
16.964745
   20
-0.671106
   30
0.000000
   0
VERTEX
  8
0
   10
16.919525
   20
-0.671286
   30
0.000000
   0
VERTEX
  8
0
   10
16.874310
   20
-0.671460
   30
0.000000
   0
VERTEX
  8
0
   10
16.829090
   20
-0.671628
   30
0.000000
   0
VERTEX
  8
0
   10
16.783875
   20
-0.671796
   30
0.000000
   0
VERTEX
  8
0
   10
16.738655
   20
-0.671955
   30
0.000000
   0
VERTEX
  8
0
   10
16.693438
   20
-0.672114
   30
0.000000
   0
VERTEX
  8
0
   10
16.648220
   20
-0.672267
   30
0.000000
   0
VERTEX
  8
0
   10
16.603003
   20
-0.672414
   30
0.000000
   0
VERTEX
  8
0
   10
16.557787
   20
-0.672561
   30
0.000000
   0
VERTEX
  8
0
   10
16.512568
   20
-0.672699
   30
0.000000
   0
VERTEX
  8
0
   10
16.467348
   20
-0.672837
   30
0.000000
   0
VERTEX
  8
0
   10
16.422132
   20
-0.672969
   30
0.000000
   0
VERTEX
  8
0
   10
16.376913
   20
-0.673095
   30
0.000000
   0
VERTEX
  8
0
   10
16.331694
   20
-0.673218
   30
0.000000
   0
VERTEX
  8
0
   10
16.286478
   20
-0.673338
   30
0.000000
   0
VERTEX
  8
0
   10
16.241259
   20
-0.673455
   30
0.000000
   0
VERTEX
  8
0
   10
16.196039
   20
-0.673566
   30
0.000000
   0
VERTEX
  8
0
   10
16.150824
   20
-0.673671
   30
0.000000
   0
VERTEX
  8
0
   10
16.105604
   20
-0.673776
   30
0.000000
   0
VERTEX
  8
0
   10
16.060387
   20
-0.673872
   30
0.000000
   0
VERTEX
  8
0
   10
16.015169
   20
-0.673968
   30
0.000000
   0
VERTEX
  8
0
   10
15.969951
   20
-0.674058
   30
0.000000
   0
VERTEX
  8
0
   10
15.924732
   20
-0.674145
   30
0.000000
   0
VERTEX
  8
0
   10
15.879516
   20
-0.674226
   30
0.000000
   0
VERTEX
  8
0
   10
15.834297
   20
-0.674304
   30
0.000000
   0
VERTEX
  8
0
   10
15.789078
   20
-0.674376
   30
0.000000
   0
VERTEX
  8
0
   10
15.743862
   20
-0.674448
   30
0.000000
   0
VERTEX
  8
0
   10
15.698643
   20
-0.674511
   30
0.000000
   0
VERTEX
  8
0
   10
15.653424
   20
-0.674574
   30
0.000000
   0
VERTEX
  8
0
   10
15.608208
   20
-0.674631
   30
0.000000
   0
VERTEX
  8
0
   10
15.562989
   20
-0.674682
   30
0.000000
   0
VERTEX
  8
0
   10
15.517770
   20
-0.674733
   30
0.000000
   0
VERTEX
  8
0
   10
15.472554
   20
-0.674778
   30
0.000000
   0
VERTEX
  8
0
   10
15.427335
   20
-0.674817
   30
0.000000
   0
VERTEX
  8
0
   10
15.382116
   20
-0.674853
   30
0.000000
   0
VERTEX
  8
0
   10
15.336897
   20
-0.674886
   30
0.000000
   0
VERTEX
  8
0
   10
15.291681
   20
-0.674916
   30
0.000000
   0
VERTEX
  8
0
   10
15.246462
   20
-0.674940
   30
0.000000
   0
VERTEX
  8
0
   10
15.201243
   20
-0.674961
   30
0.000000
   0
VERTEX
  8
0
   10
15.156027
   20
-0.674976
   30
0.000000
   0
VERTEX
  8
0
   10
15.110808
   20
-0.674988
   30
0.000000
   0
VERTEX
  8
0
   10
15.065589
   20
-0.674997
   30
0.000000
   0
VERTEX
  8
0
   10
15.020373
   20
-0.675000
   30
0.000000
   0
VERTEX
  8
0
   10
14.975154
   20
-0.675000
   30
0.000000
   0
VERTEX
  8
0
   10
14.929935
   20
-0.674994
   30
0.000000
   0
VERTEX
  8
0
   10
14.884716
   20
-0.674988
   30
0.000000
   0
VERTEX
  8
0
   10
14.839500
   20
-0.674973
   30
0.000000
   0
VERTEX
  8
0
   10
14.794281
   20
-0.674958
   30
0.000000
   0
VERTEX
  8
0
   10
14.749062
   20
-0.674937
   30
0.000000
   0
VERTEX
  8
0
   10
14.703846
   20
-0.674913
   30
0.000000
   0
VERTEX
  8
0
   10
14.658627
   20
-0.674883
   30
0.000000
   0
VERTEX
  8
0
   10
14.613408
   20
-0.674850
   30
0.000000
   0
VERTEX
  8
0
   10
14.568192
   20
-0.674814
   30
0.000000
   0
VERTEX
  8
0
   10
14.522973
   20
-0.674772
   30
0.000000
   0
VERTEX
  8
0
   10
14.477754
   20
-0.674727
   30
0.000000
   0
VERTEX
  8
0
   10
14.432535
   20
-0.674679
   30
0.000000
   0
VERTEX
  8
0
   10
14.387319
   20
-0.674625
   30
0.000000
   0
VERTEX
  8
0
   10
14.342100
   20
-0.674568
   30
0.000000
   0
VERTEX
  8
0
   10
14.296881
   20
-0.674505
   30
0.000000
   0
VERTEX
  8
0
   10
14.251665
   20
-0.674439
   30
0.000000
   0
VERTEX
  8
0
   10
14.206446
   20
-0.674370
   30
0.000000
   0
VERTEX
  8
0
   10
14.161227
   20
-0.674295
   30
0.000000
   0
VERTEX
  8
0
   10
14.116011
   20
-0.674217
   30
0.000000
   0
VERTEX
  8
0
   10
14.070792
   20
-0.674136
   30
0.000000
   0
VERTEX
  8
0
   10
14.025573
   20
-0.674049
   30
0.000000
   0
VERTEX
  8
0
   10
13.980357
   20
-0.673959
   30
0.000000
   0
VERTEX
  8
0
   10
13.935138
   20
-0.673863
   30
0.000000
   0
VERTEX
  8
0
   10
13.889919
   20
-0.673764
   30
0.000000
   0
VERTEX
  8
0
   10
13.844703
   20
-0.673662
   30
0.000000
   0
VERTEX
  8
0
   10
13.799484
   20
-0.673554
   30
0.000000
   0
VERTEX
  8
0
   10
13.754265
   20
-0.673443
   30
0.000000
   0
VERTEX
  8
0
   10
13.709049
   20
-0.673326
   30
0.000000
   0
VERTEX
  8
0
   10
13.663830
   20
-0.673206
   30
0.000000
   0
VERTEX
  8
0
   10
13.618611
   20
-0.673083
   30
0.000000
   0
VERTEX
  8
0
   10
13.573395
   20
-0.672954
   30
0.000000
   0
VERTEX
  8
0
   10
13.528176
   20
-0.672822
   30
0.000000
   0
VERTEX
  8
0
   10
13.482960
   20
-0.672687
   30
0.000000
   0
VERTEX
  8
0
   10
13.437741
   20
-0.672546
   30
0.000000
   0
VERTEX
  8
0
   10
13.392522
   20
-0.672402
   30
0.000000
   0
VERTEX
  8
0
   10
13.347306
   20
-0.672252
   30
0.000000
   0
VERTEX
  8
0
   10
13.302087
   20
-0.672099
   30
0.000000
   0
VERTEX
  8
0
   10
13.256868
   20
-0.671940
   30
0.000000
   0
VERTEX
  8
0
   10
13.211652
   20
-0.671778
   30
0.000000
   0
VERTEX
  8
0
   10
13.166433
   20
-0.671613
   30
0.000000
   0
VERTEX
  8
0
   10
13.121217
   20
-0.671442
   30
0.000000
   0
VERTEX
  8
0
   10
13.075998
   20
-0.671268
   30
0.000000
   0
VERTEX
  8
0
   10
13.030779
   20
-0.671088
   30
0.000000
   0
VERTEX
  8
0
   10
12.985563
   20
-0.670905
   30
0.000000
   0
VERTEX
  8
0
   10
12.940344
   20
-0.670716
   30
0.000000
   0
VERTEX
  8
0
   10
12.895128
   20
-0.670524
   30
0.000000
   0
VERTEX
  8
0
   10
12.849909
   20
-0.670329
   30
0.000000
   0
VERTEX
  8
0
   10
12.804693
   20
-0.670128
   30
0.000000
   0
VERTEX
  8
0
   10
12.759474
   20
-0.669924
   30
0.000000
   0
VERTEX
  8
0
   10
12.714258
   20
-0.669714
   30
0.000000
   0
VERTEX
  8
0
   10
12.669039
   20
-0.669501
   30
0.000000
   0
VERTEX
  8
0
   10
12.623820
   20
-0.669282
   30
0.000000
   0
VERTEX
  8
0
   10
12.578604
   20
-0.669060
   30
0.000000
   0
VERTEX
  8
0
   10
12.533385
   20
-0.668832
   30
0.000000
   0
VERTEX
  8
0
   10
12.488169
   20
-0.668601
   30
0.000000
   0
VERTEX
  8
0
   10
12.442950
   20
-0.668364
   30
0.000000
   0
VERTEX
  8
0
   10
12.397734
   20
-0.668124
   30
0.000000
   0
VERTEX
  8
0
   10
12.352515
   20
-0.667878
   30
0.000000
   0
VERTEX
  8
0
   10
12.307299
   20
-0.667629
   30
0.000000
   0
VERTEX
  8
0
   10
12.262083
   20
-0.667374
   30
0.000000
   0
VERTEX
  8
0
   10
12.216864
   20
-0.667116
   30
0.000000
   0
VERTEX
  8
0
   10
12.171648
   20
-0.666855
   30
0.000000
   0
VERTEX
  8
0
   10
12.126429
   20
-0.666585
   30
0.000000
   0
VERTEX
  8
0
   10
12.081213
   20
-0.666315
   30
0.000000
   0
VERTEX
  8
0
   10
12.035994
   20
-0.666039
   30
0.000000
   0
VERTEX
  8
0
   10
11.990778
   20
-0.665757
   30
0.000000
   0
VERTEX
  8
0
   10
11.945562
   20
-0.665472
   30
0.000000
   0
VERTEX
  8
0
   10
11.900343
   20
-0.665181
   30
0.000000
   0
VERTEX
  8
0
   10
11.855127
   20
-0.664887
   30
0.000000
   0
VERTEX
  8
0
   10
11.809908
   20
-0.664587
   30
0.000000
   0
VERTEX
  8
0
   10
11.764692
   20
-0.664281
   30
0.000000
   0
VERTEX
  8
0
   10
11.719476
   20
-0.663972
   30
0.000000
   0
VERTEX
  8
0
   10
11.674257
   20
-0.663660
   30
0.000000
   0
VERTEX
  8
0
   10
11.629041
   20
-0.663339
   30
0.000000
   0
VERTEX
  8
0
   10
11.583825
   20
-0.663018
   30
0.000000
   0
VERTEX
  8
0
   10
11.538606
   20
-0.662688
   30
0.000000
   0
VERTEX
  8
0
   10
11.493390
   20
-0.662358
   30
0.000000
   0
VERTEX
  8
0
   10
11.448174
   20
-0.662019
   30
0.000000
   0
VERTEX
  8
0
   10
11.402958
   20
-0.661677
   30
0.000000
   0
VERTEX
  8
0
   10
11.357739
   20
-0.661329
   30
0.000000
   0
VERTEX
  8
0
   10
11.312523
   20
-0.660978
   30
0.000000
   0
VERTEX
  8
0
   10
11.267307
   20
-0.660621
   30
0.000000
   0
VERTEX
  8
0
   10
11.222091
   20
-0.660258
   30
0.000000
   0
VERTEX
  8
0
   10
11.176872
   20
-0.659892
   30
0.000000
   0
VERTEX
  8
0
   10
11.131656
   20
-0.659520
   30
0.000000
   0
VERTEX
  8
0
   10
11.086440
   20
-0.659142
   30
0.000000
   0
VERTEX
  8
0
   10
11.041224
   20
-0.658761
   30
0.000000
   0
VERTEX
  8
0
   10
10.996008
   20
-0.658374
   30
0.000000
   0
VERTEX
  8
0
   10
10.950792
   20
-0.657981
   30
0.000000
   0
VERTEX
  8
0
   10
10.905573
   20
-0.657585
   30
0.000000
   0
VERTEX
  8
0
   10
10.860357
   20
-0.657183
   30
0.000000
   0
VERTEX
  8
0
   10
10.815141
   20
-0.656775
   30
0.000000
   0
VERTEX
  8
0
   10
10.769925
   20
-0.656361
   30
0.000000
   0
VERTEX
  8
0
   10
10.724709
   20
-0.655944
   30
0.000000
   0
VERTEX
  8
0
   10
10.679493
   20
-0.655521
   30
0.000000
   0
VERTEX
  8
0
   10
10.634277
   20
-0.655092
   30
0.000000
   0
VERTEX
  8
0
   10
10.589061
   20
-0.654660
   30
0.000000
   0
VERTEX
  8
0
   10
10.543845
   20
-0.654222
   30
0.000000
   0
VERTEX
  8
0
   10
10.498629
   20
-0.653778
   30
0.000000
   0
VERTEX
  8
0
   10
10.453413
   20
-0.653328
   30
0.000000
   0
VERTEX
  8
0
   10
10.408197
   20
-0.652875
   30
0.000000
   0
VERTEX
  8
0
   10
10.362981
   20
-0.652413
   30
0.000000
   0
VERTEX
  8
0
   10
10.317765
   20
-0.651948
   30
0.000000
   0
VERTEX
  8
0
   10
10.272552
   20
-0.651477
   30
0.000000
   0
VERTEX
  8
0
   10
10.227336
   20
-0.651003
   30
0.000000
   0
VERTEX
  8
0
   10
10.182120
   20
-0.650520
   30
0.000000
   0
VERTEX
  8
0
   10
10.136904
   20
-0.650034
   30
0.000000
   0
VERTEX
  8
0
   10
10.091688
   20
-0.649542
   30
0.000000
   0
VERTEX
  8
0
   10
10.046472
   20
-0.649041
   30
0.000000
   0
VERTEX
  8
0
   10
10.001259
   20
-0.648537
   30
0.000000
   0
VERTEX
  8
0
   10
9.956043
   20
-0.648030
   30
0.000000
   0
VERTEX
  8
0
   10
9.910827
   20
-0.647514
   30
0.000000
   0
VERTEX
  8
0
   10
9.865611
   20
-0.646992
   30
0.000000
   0
VERTEX
  8
0
   10
9.820398
   20
-0.646464
   30
0.000000
   0
VERTEX
  8
0
   10
9.775182
   20
-0.645933
   30
0.000000
   0
VERTEX
  8
0
   10
9.729969
   20
-0.645393
   30
0.000000
   0
VERTEX
  8
0
   10
9.684753
   20
-0.644850
   30
0.000000
   0
VERTEX
  8
0
   10
9.639537
   20
-0.644298
   30
0.000000
   0
VERTEX
  8
0
   10
9.594324
   20
-0.643743
   30
0.000000
   0
VERTEX
  8
0
   10
9.549108
   20
-0.643179
   30
0.000000
   0
VERTEX
  8
0
   10
9.503895
   20
-0.642612
   30
0.000000
   0
VERTEX
  8
0
   10
9.458679
   20
-0.642036
   30
0.000000
   0
VERTEX
  8
0
   10
9.413466
   20
-0.641457
   30
0.000000
   0
VERTEX
  8
0
   10
9.368250
   20
-0.640869
   30
0.000000
   0
VERTEX
  8
0
   10
9.323037
   20
-0.640275
   30
0.000000
   0
VERTEX
  8
0
   10
9.277824
   20
-0.639678
   30
0.000000
   0
VERTEX
  8
0
   10
9.232608
   20
-0.639072
   30
0.000000
   0
VERTEX
  8
0
   10
9.187395
   20
-0.638460
   30
0.000000
   0
VERTEX
  8
0
   10
9.142182
   20
-0.637842
   30
0.000000
   0
VERTEX
  8
0
   10
9.096966
   20
-0.637218
   30
0.000000
   0
VERTEX
  8
0
   10
9.051753
   20
-0.636588
   30
0.000000
   0
VERTEX
  8
0
   10
9.006540
   20
-0.635949
   30
0.000000
   0
VERTEX
  8
0
   10
8.961327
   20
-0.635307
   30
0.000000
   0
VERTEX
  8
0
   10
8.916114
   20
-0.634656
   30
0.000000
   0
VERTEX
  8
0
   10
8.870898
   20
-0.633999
   30
0.000000
   0
VERTEX
  8
0
   10
8.825685
   20
-0.633336
   30
0.000000
   0
VERTEX
  8
0
   10
8.780472
   20
-0.632664
   30
0.000000
   0
VERTEX
  8
0
   10
8.735259
   20
-0.631989
   30
0.000000
   0
VERTEX
  8
0
   10
8.690046
   20
-0.631305
   30
0.000000
   0
VERTEX
  8
0
   10
8.644833
   20
-0.630615
   30
0.000000
   0
VERTEX
  8
0
   10
8.599620
   20
-0.629916
   30
0.000000
   0
VERTEX
  8
0
   10
8.554410
   20
-0.629214
   30
0.000000
   0
VERTEX
  8
0
   10
8.509197
   20
-0.628500
   30
0.000000
   0
VERTEX
  8
0
   10
8.463984
   20
-0.627783
   30
0.000000
   0
VERTEX
  8
0
   10
8.418771
   20
-0.627057
   30
0.000000
   0
VERTEX
  8
0
   10
8.373561
   20
-0.626325
   30
0.000000
   0
VERTEX
  8
0
   10
8.328348
   20
-0.625584
   30
0.000000
   0
VERTEX
  8
0
   10
8.283135
   20
-0.624837
   30
0.000000
   0
VERTEX
  8
0
   10
8.237925
   20
-0.624081
   30
0.000000
   0
VERTEX
  8
0
   10
8.192712
   20
-0.623319
   30
0.000000
   0
VERTEX
  8
0
   10
8.147502
   20
-0.622548
   30
0.000000
   0
VERTEX
  8
0
   10
8.102289
   20
-0.621771
   30
0.000000
   0
VERTEX
  8
0
   10
8.057079
   20
-0.620988
   30
0.000000
   0
VERTEX
  8
0
   10
8.011866
   20
-0.620193
   30
0.000000
   0
VERTEX
  8
0
   10
7.966656
   20
-0.619392
   30
0.000000
   0
VERTEX
  8
0
   10
7.921446
   20
-0.618585
   30
0.000000
   0
VERTEX
  8
0
   10
7.876233
   20
-0.617769
   30
0.000000
   0
VERTEX
  8
0
   10
7.831023
   20
-0.616944
   30
0.000000
   0
VERTEX
  8
0
   10
7.785813
   20
-0.616113
   30
0.000000
   0
VERTEX
  8
0
   10
7.740603
   20
-0.615273
   30
0.000000
   0
VERTEX
  8
0
   10
7.695393
   20
-0.614424
   30
0.000000
   0
VERTEX
  8
0
   10
7.650183
   20
-0.613569
   30
0.000000
   0
VERTEX
  8
0
   10
7.604973
   20
-0.612702
   30
0.000000
   0
VERTEX
  8
0
   10
7.559763
   20
-0.611829
   30
0.000000
   0
VERTEX
  8
0
   10
7.514553
   20
-0.610950
   30
0.000000
   0
VERTEX
  8
0
   10
7.469343
   20
-0.610059
   30
0.000000
   0
VERTEX
  8
0
   10
7.424136
   20
-0.609162
   30
0.000000
   0
VERTEX
  8
0
   10
7.378926
   20
-0.608253
   30
0.000000
   0
VERTEX
  8
0
   10
7.333716
   20
-0.607338
   30
0.000000
   0
VERTEX
  8
0
   10
7.288509
   20
-0.606414
   30
0.000000
   0
VERTEX
  8
0
   10
7.243299
   20
-0.605481
   30
0.000000
   0
VERTEX
  8
0
   10
7.198092
   20
-0.604539
   30
0.000000
   0
VERTEX
  8
0
   10
7.152885
   20
-0.603588
   30
0.000000
   0
VERTEX
  8
0
   10
7.107675
   20
-0.602628
   30
0.000000
   0
VERTEX
  8
0
   10
7.062468
   20
-0.601659
   30
0.000000
   0
VERTEX
  8
0
   10
7.017261
   20
-0.600681
   30
0.000000
   0
VERTEX
  8
0
   10
6.972054
   20
-0.599694
   30
0.000000
   0
VERTEX
  8
0
   10
6.926847
   20
-0.598695
   30
0.000000
   0
VERTEX
  8
0
   10
6.881640
   20
-0.597687
   30
0.000000
   0
VERTEX
  8
0
   10
6.836433
   20
-0.596673
   30
0.000000
   0
VERTEX
  8
0
   10
6.791226
   20
-0.595644
   30
0.000000
   0
VERTEX
  8
0
   10
6.746019
   20
-0.594609
   30
0.000000
   0
VERTEX
  8
0
   10
6.700815
   20
-0.593562
   30
0.000000
   0
VERTEX
  8
0
   10
6.655608
   20
-0.592506
   30
0.000000
   0
VERTEX
  8
0
   10
6.610404
   20
-0.591438
   30
0.000000
   0
VERTEX
  8
0
   10
6.565197
   20
-0.590361
   30
0.000000
   0
VERTEX
  8
0
   10
6.519993
   20
-0.589275
   30
0.000000
   0
VERTEX
  8
0
   10
6.474789
   20
-0.588177
   30
0.000000
   0
VERTEX
  8
0
   10
6.429582
   20
-0.587067
   30
0.000000
   0
VERTEX
  8
0
   10
6.384378
   20
-0.585948
   30
0.000000
   0
VERTEX
  8
0
   10
6.339174
   20
-0.584817
   30
0.000000
   0
VERTEX
  8
0
   10
6.293970
   20
-0.583677
   30
0.000000
   0
VERTEX
  8
0
   10
6.248769
   20
-0.582525
   30
0.000000
   0
VERTEX
  8
0
   10
6.203565
   20
-0.581364
   30
0.000000
   0
VERTEX
  8
0
   10
6.158361
   20
-0.580191
   30
0.000000
   0
VERTEX
  8
0
   10
6.113160
   20
-0.579006
   30
0.000000
   0
VERTEX
  8
0
   10
6.067956
   20
-0.577809
   30
0.000000
   0
VERTEX
  8
0
   10
6.022755
   20
-0.576600
   30
0.000000
   0
VERTEX
  8
0
   10
5.977554
   20
-0.575382
   30
0.000000
   0
VERTEX
  8
0
   10
5.932353
   20
-0.574152
   30
0.000000
   0
VERTEX
  8
0
   10
5.887152
   20
-0.572907
   30
0.000000
   0
VERTEX
  8
0
   10
5.841951
   20
-0.571653
   30
0.000000
   0
VERTEX
  8
0
   10
5.796750
   20
-0.570387
   30
0.000000
   0
VERTEX
  8
0
   10
5.751549
   20
-0.569106
   30
0.000000
   0
VERTEX
  8
0
   10
5.706351
   20
-0.567816
   30
0.000000
   0
VERTEX
  8
0
   10
5.661150
   20
-0.566511
   30
0.000000
   0
VERTEX
  8
0
   10
5.615952
   20
-0.565191
   30
0.000000
   0
VERTEX
  8
0
   10
5.570754
   20
-0.563862
   30
0.000000
   0
VERTEX
  8
0
   10
5.525556
   20
-0.562515
   30
0.000000
   0
VERTEX
  8
0
   10
5.480358
   20
-0.561159
   30
0.000000
   0
VERTEX
  8
0
   10
5.435160
   20
-0.559785
   30
0.000000
   0
VERTEX
  8
0
   10
5.389962
   20
-0.558402
   30
0.000000
   0
VERTEX
  8
0
   10
5.344767
   20
-0.557001
   30
0.000000
   0
VERTEX
  8
0
   10
5.299572
   20
-0.555585
   30
0.000000
   0
VERTEX
  8
0
   10
5.254377
   20
-0.554157
   30
0.000000
   0
VERTEX
  8
0
   10
5.209179
   20
-0.552714
   30
0.000000
   0
VERTEX
  8
0
   10
5.163987
   20
-0.551253
   30
0.000000
   0
VERTEX
  8
0
   10
5.118792
   20
-0.549780
   30
0.000000
   0
VERTEX
  8
0
   10
5.073597
   20
-0.548292
   30
0.000000
   0
VERTEX
  8
0
   10
5.028405
   20
-0.546786
   30
0.000000
   0
VERTEX
  8
0
   10
4.983213
   20
-0.545265
   30
0.000000
   0
VERTEX
  8
0
   10
4.938021
   20
-0.543729
   30
0.000000
   0
VERTEX
  8
0
   10
4.892829
   20
-0.542175
   30
0.000000
   0
VERTEX
  8
0
   10
4.847637
   20
-0.540606
   30
0.000000
   0
VERTEX
  8
0
   10
4.802448
   20
-0.539019
   30
0.000000
   0
VERTEX
  8
0
   10
4.757259
   20
-0.537417
   30
0.000000
   0
VERTEX
  8
0
   10
4.712070
   20
-0.535797
   30
0.000000
   0
VERTEX
  8
0
   10
4.666881
   20
-0.534162
   30
0.000000
   0
VERTEX
  8
0
   10
4.621692
   20
-0.532509
   30
0.000000
   0
VERTEX
  8
0
   10
4.576506
   20
-0.530835
   30
0.000000
   0
VERTEX
  8
0
   10
4.531320
   20
-0.529146
   30
0.000000
   0
VERTEX
  8
0
   10
4.486134
   20
-0.527439
   30
0.000000
   0
VERTEX
  8
0
   10
4.440948
   20
-0.525714
   30
0.000000
   0
VERTEX
  8
0
   10
4.395765
   20
-0.523971
   30
0.000000
   0
VERTEX
  8
0
   10
4.350579
   20
-0.522207
   30
0.000000
   0
VERTEX
  8
0
   10
4.305396
   20
-0.520425
   30
0.000000
   0
VERTEX
  8
0
   10
4.260216
   20
-0.518625
   30
0.000000
   0
VERTEX
  8
0
   10
4.215033
   20
-0.516804
   30
0.000000
   0
VERTEX
  8
0
   10
4.169853
   20
-0.514962
   30
0.000000
   0
VERTEX
  8
0
   10
4.124673
   20
-0.513099
   30
0.000000
   0
VERTEX
  8
0
   10
4.079493
   20
-0.511215
   30
0.000000
   0
VERTEX
  8
0
   10
4.034316
   20
-0.509310
   30
0.000000
   0
VERTEX
  8
0
   10
3.989139
   20
-0.507381
   30
0.000000
   0
VERTEX
  8
0
   10
3.943962
   20
-0.505434
   30
0.000000
   0
VERTEX
  8
0
   10
3.898788
   20
-0.503463
   30
0.000000
   0
VERTEX
  8
0
   10
3.853614
   20
-0.501468
   30
0.000000
   0
VERTEX
  8
0
   10
3.808440
   20
-0.499449
   30
0.000000
   0
VERTEX
  8
0
   10
3.763269
   20
-0.497409
   30
0.000000
   0
VERTEX
  8
0
   10
3.718098
   20
-0.495342
   30
0.000000
   0
VERTEX
  8
0
   10
3.672927
   20
-0.493254
   30
0.000000
   0
VERTEX
  8
0
   10
3.627759
   20
-0.491139
   30
0.000000
   0
VERTEX
  8
0
   10
3.582591
   20
-0.489000
   30
0.000000
   0
VERTEX
  8
0
   10
3.537426
   20
-0.486834
   30
0.000000
   0
VERTEX
  8
0
   10
3.492261
   20
-0.484644
   30
0.000000
   0
VERTEX
  8
0
   10
3.447096
   20
-0.482427
   30
0.000000
   0
VERTEX
  8
0
   10
3.401934
   20
-0.480183
   30
0.000000
   0
VERTEX
  8
0
   10
3.356775
   20
-0.477912
   30
0.000000
   0
VERTEX
  8
0
   10
3.311613
   20
-0.475614
   30
0.000000
   0
VERTEX
  8
0
   10
3.266457
   20
-0.473289
   30
0.000000
   0
VERTEX
  8
0
   10
3.221298
   20
-0.470937
   30
0.000000
   0
VERTEX
  8
0
   10
3.176145
   20
-0.468555
   30
0.000000
   0
VERTEX
  8
0
   10
3.130989
   20
-0.466146
   30
0.000000
   0
VERTEX
  8
0
   10
3.085839
   20
-0.463707
   30
0.000000
   0
VERTEX
  8
0
   10
3.040686
   20
-0.461238
   30
0.000000
   0
VERTEX
  8
0
   10
2.995539
   20
-0.458739
   30
0.000000
   0
VERTEX
  8
0
   10
2.950389
   20
-0.456213
   30
0.000000
   0
VERTEX
  8
0
   10
2.905245
   20
-0.453651
   30
0.000000
   0
VERTEX
  8
0
   10
2.860101
   20
-0.451059
   30
0.000000
   0
VERTEX
  8
0
   10
2.814960
   20
-0.448428
   30
0.000000
   0
VERTEX
  8
0
   10
2.769819
   20
-0.445764
   30
0.000000
   0
VERTEX
  8
0
   10
2.724684
   20
-0.443061
   30
0.000000
   0
VERTEX
  8
0
   10
2.679549
   20
-0.440319
   30
0.000000
   0
VERTEX
  8
0
   10
2.634417
   20
-0.437538
   30
0.000000
   0
VERTEX
  8
0
   10
2.589285
   20
-0.434712
   30
0.000000
   0
VERTEX
  8
0
   10
2.544159
   20
-0.431844
   30
0.000000
   0
VERTEX
  8
0
   10
2.499036
   20
-0.428928
   30
0.000000
   0
VERTEX
  8
0
   10
2.453913
   20
-0.425967
   30
0.000000
   0
VERTEX
  8
0
   10
2.408796
   20
-0.422958
   30
0.000000
   0
VERTEX
  8
0
   10
2.363682
   20
-0.419898
   30
0.000000
   0
VERTEX
  8
0
   10
2.318571
   20
-0.416787
   30
0.000000
   0
VERTEX
  8
0
   10
2.273463
   20
-0.413622
   30
0.000000
   0
VERTEX
  8
0
   10
2.228361
   20
-0.410403
   30
0.000000
   0
VERTEX
  8
0
   10
2.183259
   20
-0.407130
   30
0.000000
   0
VERTEX
  8
0
   10
2.138166
   20
-0.403797
   30
0.000000
   0
VERTEX
  8
0
   10
2.093076
   20
-0.400404
   30
0.000000
   0
VERTEX
  8
0
   10
2.047989
   20
-0.396954
   30
0.000000
   0
VERTEX
  8
0
   10
2.002908
   20
-0.393438
   30
0.000000
   0
VERTEX
  8
0
   10
1.957830
   20
-0.389862
   30
0.000000
   0
VERTEX
  8
0
   10
1.912761
   20
-0.386220
   30
0.000000
   0
VERTEX
  8
0
   10
1.867695
   20
-0.382509
   30
0.000000
   0
VERTEX
  8
0
   10
1.822635
   20
-0.378732
   30
0.000000
   0
VERTEX
  8
0
   10
1.777581
   20
-0.374886
   30
0.000000
   0
VERTEX
  8
0
   10
1.732533
   20
-0.370968
   30
0.000000
   0
VERTEX
  8
0
   10
1.687491
   20
-0.366975
   30
0.000000
   0
VERTEX
  8
0
   10
1.642455
   20
-0.362910
   30
0.000000
   0
VERTEX
  8
0
   10
1.597428
   20
-0.358770
   30
0.000000
   0
VERTEX
  8
0
   10
1.552407
   20
-0.354552
   30
0.000000
   0
VERTEX
  8
0
   10
1.507392
   20
-0.350256
   30
0.000000
   0
VERTEX
  8
0
   10
1.462386
   20
-0.345879
   30
0.000000
   0
VERTEX
  8
0
   10
1.417389
   20
-0.341415
   30
0.000000
   0
VERTEX
  8
0
   10
1.372401
   20
-0.336855
   30
0.000000
   0
VERTEX
  8
0
   10
1.327425
   20
-0.332190
   30
0.000000
   0
VERTEX
  8
0
   10
1.282461
   20
-0.327411
   30
0.000000
   0
VERTEX
  8
0
   10
1.237509
   20
-0.322512
   30
0.000000
   0
VERTEX
  8
0
   10
1.192572
   20
-0.317484
   30
0.000000
   0
VERTEX
  8
0
   10
1.147650
   20
-0.312315
   30
0.000000
   0
VERTEX
  8
0
   10
1.102743
   20
-0.307002
   30
0.000000
   0
VERTEX
  8
0
   10
1.057857
   20
-0.301533
   30
0.000000
   0
VERTEX
  8
0
   10
1.012992
   20
-0.295902
   30
0.000000
   0
VERTEX
  8
0
   10
0.968148
   20
-0.290097
   30
0.000000
   0
VERTEX
  8
0
   10
0.923328
   20
-0.284112
   30
0.000000
   0
VERTEX
  8
0
   10
0.878532
   20
-0.277941
   30
0.000000
   0
VERTEX
  8
0
   10
0.833766
   20
-0.271572
   30
0.000000
   0
VERTEX
  8
0
   10
0.789027
   20
-0.264996
   30
0.000000
   0
VERTEX
  8
0
   10
0.744321
   20
-0.258207
   30
0.000000
   0
VERTEX
  8
0
   10
0.699651
   20
-0.251190
   30
0.000000
   0
VERTEX
  8
0
   10
0.655026
   20
-0.243903
   30
0.000000
   0
VERTEX
  8
0
   10
0.610452
   20
-0.236301
   30
0.000000
   0
VERTEX
  8
0
   10
0.565938
   20
-0.228339
   30
0.000000
   0
VERTEX
  8
0
   10
0.521502
   20
-0.219978
   30
0.000000
   0
VERTEX
  8
0
   10
0.477150
   20
-0.211173
   30
0.000000
   0
VERTEX
  8
0
   10
0.432897
   20
-0.201879
   30
0.000000
   0
VERTEX
  8
0
   10
0.388758
   20
-0.192057
   30
0.000000
   0
VERTEX
  8
0
   10
0.344754
   20
-0.181650
   30
0.000000
   0
VERTEX
  8
0
   10
0.300930
   20
-0.170511
   30
0.000000
   0
VERTEX
  8
0
   10
0.257361
   20
-0.158421
   30
0.000000
   0
VERTEX
  8
0
   10
0.214128
   20
-0.145170
   30
0.000000
   0
VERTEX
  8
0
   10
0.171342
   20
-0.130545
   30
0.000000
   0
VERTEX
  8
0
   10
0.129243
   20
-0.114063
   30
0.000000
   0
VERTEX
  8
0
   10
0.088308
   20
-0.094878
   30
0.000000
   0
VERTEX
  8
0
   10
0.049569
   20
-0.071628
   30
0.000000
   0
VERTEX
  8
0
   10
0.016179
   20
-0.041349
   30
0.000000
   0
VERTEX
  8
0
   10
0.000000
   20
0.000000
   30
0.000000
   0
VERTEX
  8
0
   10
0.015708
   20
0.041682
   30
0.000000
   0
VERTEX
  8
0
   10
0.085539
   20
0.098550
   30
0.000000
   0
VERTEX
  8
0
   10
0.125463
   20
0.119943
   30
0.000000
   0
VERTEX
  8
0
   10
0.166659
   20
0.138780
   30
0.000000
   0
VERTEX
  8
0
   10
0.208635
   20
0.155817
   30
0.000000
   0
VERTEX
  8
0
   10
0.251124
   20
0.171534
   30
0.000000
   0
VERTEX
  8
0
   10
0.294009
   20
0.186132
   30
0.000000
   0
VERTEX
  8
0
   10
0.337203
   20
0.199800
   30
0.000000
   0
VERTEX
  8
0
   10
0.380622
   20
0.212733
   30
0.000000
   0
VERTEX
  8
0
   10
0.424206
   20
0.225090
   30
0.000000
   0
VERTEX
  8
0
   10
0.467937
   20
0.236925
   30
0.000000
   0
VERTEX
  8
0
   10
0.511794
   20
0.248280
   30
0.000000
   0
VERTEX
  8
0
   10
0.555765
   20
0.259197
   30
0.000000
   0
VERTEX
  8
0
   10
0.599832
   20
0.269712
   30
0.000000
   0
VERTEX
  8
0
   10
0.643983
   20
0.279864
   30
0.000000
   0
VERTEX
  8
0
   10
0.688206
   20
0.289701
   30
0.000000
   0
VERTEX
  8
0
   10
0.732489
   20
0.299259
   30
0.000000
   0
VERTEX
  8
0
   10
0.776826
   20
0.308577
   30
0.000000
   0
VERTEX
  8
0
   10
0.821205
   20
0.317679
   30
0.000000
   0
VERTEX
  8
0
   10
0.865626
   20
0.326574
   30
0.000000
   0
VERTEX
  8
0
   10
0.910089
   20
0.335268
   30
0.000000
   0
VERTEX
  8
0
   10
0.954588
   20
0.343770
   30
0.000000
   0
VERTEX
  8
0
   10
0.999123
   20
0.352086
   30
0.000000
   0
VERTEX
  8
0
   10
1.043688
   20
0.360225
   30
0.000000
   0
VERTEX
  8
0
   10
1.088286
   20
0.368196
   30
0.000000
   0
VERTEX
  8
0
   10
1.132911
   20
0.376005
   30
0.000000
   0
VERTEX
  8
0
   10
1.177566
   20
0.383664
   30
0.000000
   0
VERTEX
  8
0
   10
1.222242
   20
0.391176
   30
0.000000
   0
VERTEX
  8
0
   10
1.266942
   20
0.398550
   30
0.000000
   0
VERTEX
  8
0
   10
1.311663
   20
0.405798
   30
0.000000
   0
VERTEX
  8
0
   10
1.356402
   20
0.412923
   30
0.000000
   0
VERTEX
  8
0
   10
1.401159
   20
0.419937
   30
0.000000
   0
VERTEX
  8
0
   10
1.445934
   20
0.426846
   30
0.000000
   0
VERTEX
  8
0
   10
1.490721
   20
0.433659
   30
0.000000
   0
VERTEX
  8
0
   10
1.535526
   20
0.440382
   30
0.000000
   0
VERTEX
  8
0
   10
1.580340
   20
0.447021
   30
0.000000
   0
VERTEX
  8
0
   10
1.625166
   20
0.453576
   30
0.000000
   0
VERTEX
  8
0
   10
1.670007
   20
0.460047
   30
0.000000
   0
VERTEX
  8
0
   10
1.714857
   20
0.466437
   30
0.000000
   0
VERTEX
  8
0
   10
1.759719
   20
0.472749
   30
0.000000
   0
VERTEX
  8
0
   10
1.804593
   20
0.478980
   30
0.000000
   0
VERTEX
  8
0
   10
1.849476
   20
0.485136
   30
0.000000
   0
VERTEX
  8
0
   10
1.894371
   20
0.491217
   30
0.000000
   0
VERTEX
  8
0
   10
1.939275
   20
0.497223
   30
0.000000
   0
VERTEX
  8
0
   10
1.984188
   20
0.503157
   30
0.000000
   0
VERTEX
  8
0
   10
2.029113
   20
0.509019
   30
0.000000
   0
VERTEX
  8
0
   10
2.074044
   20
0.514812
   30
0.000000
   0
VERTEX
  8
0
   10
2.118984
   20
0.520536
   30
0.000000
   0
VERTEX
  8
0
   10
2.163933
   20
0.526194
   30
0.000000
   0
VERTEX
  8
0
   10
2.208891
   20
0.531789
   30
0.000000
   0
VERTEX
  8
0
   10
2.253858
   20
0.537318
   30
0.000000
   0
VERTEX
  8
0
   10
2.298828
   20
0.542784
   30
0.000000
   0
VERTEX
  8
0
   10
2.343810
   20
0.548193
   30
0.000000
   0
VERTEX
  8
0
   10
2.388798
   20
0.553539
   30
0.000000
   0
VERTEX
  8
0
   10
2.433792
   20
0.558828
   30
0.000000
   0
VERTEX
  8
0
   10
2.478792
   20
0.564063
   30
0.000000
   0
VERTEX
  8
0
   10
2.523798
   20
0.569241
   30
0.000000
   0
VERTEX
  8
0
   10
2.568813
   20
0.574365
   30
0.000000
   0
VERTEX
  8
0
   10
2.613831
   20
0.579438
   30
0.000000
   0
VERTEX
  8
0
   10
2.658855
   20
0.584460
   30
0.000000
   0
VERTEX
  8
0
   10
2.703885
   20
0.589434
   30
0.000000
   0
VERTEX
  8
0
   10
2.748921
   20
0.594360
   30
0.000000
   0
VERTEX
  8
0
   10
2.793963
   20
0.599241
   30
0.000000
   0
VERTEX
  8
0
   10
2.839008
   20
0.604077
   30
0.000000
   0
VERTEX
  8
0
   10
2.884056
   20
0.608868
   30
0.000000
   0
VERTEX
  8
0
   10
2.929110
   20
0.613620
   30
0.000000
   0
VERTEX
  8
0
   10
2.974170
   20
0.618330
   30
0.000000
   0
VERTEX
  8
0
   10
3.019233
   20
0.623001
   30
0.000000
   0
VERTEX
  8
0
   10
3.064299
   20
0.627636
   30
0.000000
   0
VERTEX
  8
0
   10
3.109368
   20
0.632232
   30
0.000000
   0
VERTEX
  8
0
   10
3.154443
   20
0.636792
   30
0.000000
   0
VERTEX
  8
0
   10
3.199521
   20
0.641313
   30
0.000000
   0
VERTEX
  8
0
   10
3.244602
   20
0.645801
   30
0.000000
   0
VERTEX
  8
0
   10
3.289686
   20
0.650253
   30
0.000000
   0
VERTEX
  8
0
   10
3.334776
   20
0.654666
   30
0.000000
   0
VERTEX
  8
0
   10
3.379866
   20
0.659049
   30
0.000000
   0
VERTEX
  8
0
   10
3.424962
   20
0.663393
   30
0.000000
   0
VERTEX
  8
0
   10
3.470061
   20
0.667704
   30
0.000000
   0
VERTEX
  8
0
   10
3.515163
   20
0.671979
   30
0.000000
   0
VERTEX
  8
0
   10
3.560268
   20
0.676224
   30
0.000000
   0
VERTEX
  8
0
   10
3.605376
   20
0.680433
   30
0.000000
   0
VERTEX
  8
0
   10
3.650487
   20
0.684609
   30
0.000000
   0
VERTEX
  8
0
   10
3.695601
   20
0.688752
   30
0.000000
   0
VERTEX
  8
0
   10
3.740718
   20
0.692862
   30
0.000000
   0
VERTEX
  8
0
   10
3.785838
   20
0.696942
   30
0.000000
   0
VERTEX
  8
0
   10
3.830961
   20
0.700989
   30
0.000000
   0
VERTEX
  8
0
   10
3.876084
   20
0.705006
   30
0.000000
   0
VERTEX
  8
0
   10
3.921213
   20
0.708990
   30
0.000000
   0
VERTEX
  8
0
   10
3.966345
   20
0.712944
   30
0.000000
   0
VERTEX
  8
0
   10
4.011480
   20
0.716868
   30
0.000000
   0
VERTEX
  8
0
   10
4.056615
   20
0.720762
   30
0.000000
   0
VERTEX
  8
0
   10
4.101753
   20
0.724629
   30
0.000000
   0
VERTEX
  8
0
   10
4.146894
   20
0.728463
   30
0.000000
   0
VERTEX
  8
0
   10
4.192038
   20
0.732270
   30
0.000000
   0
VERTEX
  8
0
   10
4.237185
   20
0.736047
   30
0.000000
   0
VERTEX
  8
0
   10
4.282335
   20
0.739797
   30
0.000000
   0
VERTEX
  8
0
   10
4.327485
   20
0.743520
   30
0.000000
   0
VERTEX
  8
0
   10
4.372638
   20
0.747216
   30
0.000000
   0
VERTEX
  8
0
   10
4.417794
   20
0.750882
   30
0.000000
   0
VERTEX
  8
0
   10
4.462950
   20
0.754524
   30
0.000000
   0
VERTEX
  8
0
   10
4.508109
   20
0.758139
   30
0.000000
   0
VERTEX
  8
0
   10
4.553271
   20
0.761727
   30
0.000000
   0
VERTEX
  8
0
   10
4.598436
   20
0.765291
   30
0.000000
   0
VERTEX
  8
0
   10
4.643601
   20
0.768828
   30
0.000000
   0
VERTEX
  8
0
   10
4.688769
   20
0.772338
   30
0.000000
   0
VERTEX
  8
0
   10
4.733937
   20
0.775824
   30
0.000000
   0
VERTEX
  8
0
   10
4.779111
   20
0.779286
   30
0.000000
   0
VERTEX
  8
0
   10
4.824282
   20
0.782724
   30
0.000000
   0
VERTEX
  8
0
   10
4.869459
   20
0.786135
   30
0.000000
   0
VERTEX
  8
0
   10
4.914636
   20
0.789522
   30
0.000000
   0
VERTEX
  8
0
   10
4.959816
   20
0.792885
   30
0.000000
   0
VERTEX
  8
0
   10
5.004996
   20
0.796224
   30
0.000000
   0
VERTEX
  8
0
   10
5.050179
   20
0.799539
   30
0.000000
   0
VERTEX
  8
0
   10
5.095362
   20
0.802830
   30
0.000000
   0
VERTEX
  8
0
   10
5.140548
   20
0.806097
   30
0.000000
   0
VERTEX
  8
0
   10
5.185737
   20
0.809343
   30
0.000000
   0
VERTEX
  8
0
   10
5.230926
   20
0.812565
   30
0.000000
   0
VERTEX
  8
0
   10
5.276115
   20
0.815763
   30
0.000000
   0
VERTEX
  8
0
   10
5.321310
   20
0.818937
   30
0.000000
   0
VERTEX
  8
0
   10
5.366502
   20
0.822090
   30
0.000000
   0
VERTEX
  8
0
   10
5.411700
   20
0.825222
   30
0.000000
   0
VERTEX
  8
0
   10
5.456895
   20
0.828330
   30
0.000000
   0
VERTEX
  8
0
   10
5.502096
   20
0.831417
   30
0.000000
   0
VERTEX
  8
0
   10
5.547294
   20
0.834480
   30
0.000000
   0
VERTEX
  8
0
   10
5.592498
   20
0.837525
   30
0.000000
   0
VERTEX
  8
0
   10
5.637699
   20
0.840546
   30
0.000000
   0
VERTEX
  8
0
   10
5.682903
   20
0.843546
   30
0.000000
   0
VERTEX
  8
0
   10
5.728110
   20
0.846525
   30
0.000000
   0
VERTEX
  8
0
   10
5.773317
   20
0.849486
   30
0.000000
   0
VERTEX
  8
0
   10
5.818527
   20
0.852423
   30
0.000000
   0
VERTEX
  8
0
   10
5.863737
   20
0.855339
   30
0.000000
   0
VERTEX
  8
0
   10
5.908947
   20
0.858237
   30
0.000000
   0
VERTEX
  8
0
   10
5.954160
   20
0.861114
   30
0.000000
   0
VERTEX
  8
0
   10
5.999373
   20
0.863973
   30
0.000000
   0
VERTEX
  8
0
   10
6.044589
   20
0.866811
   30
0.000000
   0
VERTEX
  8
0
   10
6.089805
   20
0.869628
   30
0.000000
   0
VERTEX
  8
0
   10
6.135024
   20
0.872427
   30
0.000000
   0
VERTEX
  8
0
   10
6.180240
   20
0.875205
   30
0.000000
   0
VERTEX
  8
0
   10
6.225462
   20
0.877965
   30
0.000000
   0
VERTEX
  8
0
   10
6.270681
   20
0.880707
   30
0.000000
   0
VERTEX
  8
0
   10
6.315903
   20
0.883428
   30
0.000000
   0
VERTEX
  8
0
   10
6.361128
   20
0.886131
   30
0.000000
   0
VERTEX
  8
0
   10
6.406353
   20
0.888813
   30
0.000000
   0
VERTEX
  8
0
   10
6.451578
   20
0.891480
   30
0.000000
   0
VERTEX
  8
0
   10
6.496803
   20
0.894126
   30
0.000000
   0
VERTEX
  8
0
   10
6.542031
   20
0.896754
   30
0.000000
   0
VERTEX
  8
0
   10
6.587262
   20
0.899361
   30
0.000000
   0
VERTEX
  8
0
   10
6.632490
   20
0.901953
   30
0.000000
   0
VERTEX
  8
0
   10
6.677721
   20
0.904524
   30
0.000000
   0
VERTEX
  8
0
   10
6.722955
   20
0.907077
   30
0.000000
   0
VERTEX
  8
0
   10
6.768186
   20
0.909615
   30
0.000000
   0
VERTEX
  8
0
   10
6.813420
   20
0.912132
   30
0.000000
   0
VERTEX
  8
0
   10
6.858657
   20
0.914631
   30
0.000000
   0
VERTEX
  8
0
   10
6.903891
   20
0.917112
   30
0.000000
   0
VERTEX
  8
0
   10
6.949128
   20
0.919575
   30
0.000000
   0
VERTEX
  8
0
   10
6.994365
   20
0.922023
   30
0.000000
   0
VERTEX
  8
0
   10
7.039605
   20
0.924450
   30
0.000000
   0
VERTEX
  8
0
   10
7.084845
   20
0.926862
   30
0.000000
   0
VERTEX
  8
0
   10
7.130085
   20
0.929256
   30
0.000000
   0
VERTEX
  8
0
   10
7.175328
   20
0.931632
   30
0.000000
   0
VERTEX
  8
0
   10
7.220571
   20
0.933990
   30
0.000000
   0
VERTEX
  8
0
   10
7.265814
   20
0.936333
   30
0.000000
   0
VERTEX
  8
0
   10
7.311057
   20
0.938658
   30
0.000000
   0
VERTEX
  8
0
   10
7.356303
   20
0.940965
   30
0.000000
   0
VERTEX
  8
0
   10
7.401549
   20
0.943257
   30
0.000000
   0
VERTEX
  8
0
   10
7.446795
   20
0.945531
   30
0.000000
   0
VERTEX
  8
0
   10
7.492044
   20
0.947787
   30
0.000000
   0
VERTEX
  8
0
   10
7.537293
   20
0.950028
   30
0.000000
   0
VERTEX
  8
0
   10
7.582542
   20
0.952251
   30
0.000000
   0
VERTEX
  8
0
   10
7.627791
   20
0.954459
   30
0.000000
   0
VERTEX
  8
0
   10
7.673043
   20
0.956652
   30
0.000000
   0
VERTEX
  8
0
   10
7.718295
   20
0.958827
   30
0.000000
   0
VERTEX
  8
0
   10
7.763547
   20
0.960984
   30
0.000000
   0
VERTEX
  8
0
   10
7.808799
   20
0.963129
   30
0.000000
   0
VERTEX
  8
0
   10
7.854054
   20
0.965253
   30
0.000000
   0
VERTEX
  8
0
   10
7.899309
   20
0.967365
   30
0.000000
   0
VERTEX
  8
0
   10
7.944564
   20
0.969459
   30
0.000000
   0
VERTEX
  8
0
   10
7.989822
   20
0.971535
   30
0.000000
   0
VERTEX
  8
0
   10
8.035077
   20
0.973599
   30
0.000000
   0
VERTEX
  8
0
   10
8.080335
   20
0.975645
   30
0.000000
   0
VERTEX
  8
0
   10
8.125593
   20
0.977676
   30
0.000000
   0
VERTEX
  8
0
   10
8.170854
   20
0.979689
   30
0.000000
   0
VERTEX
  8
0
   10
8.216112
   20
0.981690
   30
0.000000
   0
VERTEX
  8
0
   10
8.261373
   20
0.983673
   30
0.000000
   0
VERTEX
  8
0
   10
8.306634
   20
0.985641
   30
0.000000
   0
VERTEX
  8
0
   10
8.351898
   20
0.987591
   30
0.000000
   0
VERTEX
  8
0
   10
8.397159
   20
0.989529
   30
0.000000
   0
VERTEX
  8
0
   10
8.442423
   20
0.991449
   30
0.000000
   0
VERTEX
  8
0
   10
8.487687
   20
0.993354
   30
0.000000
   0
VERTEX
  8
0
   10
8.532951
   20
0.995247
   30
0.000000
   0
VERTEX
  8
0
   10
8.578218
   20
0.997122
   30
0.000000
   0
VERTEX
  8
0
   10
8.623482
   20
0.998982
   30
0.000000
   0
VERTEX
  8
0
   10
8.668749
   20
1.000827
   30
0.000000
   0
VERTEX
  8
0
   10
8.714016
   20
1.002657
   30
0.000000
   0
VERTEX
  8
0
   10
8.759283
   20
1.004469
   30
0.000000
   0
VERTEX
  8
0
   10
8.804553
   20
1.006269
   30
0.000000
   0
VERTEX
  8
0
   10
8.849820
   20
1.008054
   30
0.000000
   0
VERTEX
  8
0
   10
8.895090
   20
1.009824
   30
0.000000
   0
VERTEX
  8
0
   10
8.940360
   20
1.011582
   30
0.000000
   0
VERTEX
  8
0
   10
8.985630
   20
1.013322
   30
0.000000
   0
VERTEX
  8
0
   10
9.030903
   20
1.015047
   30
0.000000
   0
VERTEX
  8
0
   10
9.076173
   20
1.016757
   30
0.000000
   0
VERTEX
  8
0
   10
9.121446
   20
1.018455
   30
0.000000
   0
VERTEX
  8
0
   10
9.166719
   20
1.020138
   30
0.000000
   0
VERTEX
  8
0
   10
9.211992
   20
1.021803
   30
0.000000
   0
VERTEX
  8
0
   10
9.257265
   20
1.023456
   30
0.000000
   0
VERTEX
  8
0
   10
9.302541
   20
1.025097
   30
0.000000
   0
VERTEX
  8
0
   10
9.347814
   20
1.026720
   30
0.000000
   0
VERTEX
  8
0
   10
9.393090
   20
1.028331
   30
0.000000
   0
VERTEX
  8
0
   10
9.438366
   20
1.029924
   30
0.000000
   0
VERTEX
  8
0
   10
9.483642
   20
1.031505
   30
0.000000
   0
VERTEX
  8
0
   10
9.528918
   20
1.033074
   30
0.000000
   0
VERTEX
  8
0
   10
9.574197
   20
1.034625
   30
0.000000
   0
VERTEX
  8
0
   10
9.619476
   20
1.036164
   30
0.000000
   0
VERTEX
  8
0
   10
9.664752
   20
1.037688
   30
0.000000
   0
VERTEX
  8
0
   10
9.710031
   20
1.039197
   30
0.000000
   0
VERTEX
  8
0
   10
9.755310
   20
1.040694
   30
0.000000
   0
VERTEX
  8
0
   10
9.800592
   20
1.042176
   30
0.000000
   0
VERTEX
  8
0
   10
9.845871
   20
1.043643
   30
0.000000
   0
VERTEX
  8
0
   10
9.891153
   20
1.045098
   30
0.000000
   0
VERTEX
  8
0
   10
9.936432
   20
1.046538
   30
0.000000
   0
VERTEX
  8
0
   10
9.981714
   20
1.047963
   30
0.000000
   0
VERTEX
  8
0
   10
10.026996
   20
1.049373
   30
0.000000
   0
VERTEX
  8
0
   10
10.072278
   20
1.050771
   30
0.000000
   0
VERTEX
  8
0
   10
10.117563
   20
1.052157
   30
0.000000
   0
VERTEX
  8
0
   10
10.162845
   20
1.053528
   30
0.000000
   0
VERTEX
  8
0
   10
10.208130
   20
1.054884
   30
0.000000
   0
VERTEX
  8
0
   10
10.253412
   20
1.056225
   30
0.000000
   0
VERTEX
  8
0
   10
10.298697
   20
1.057557
   30
0.000000
   0
VERTEX
  8
0
   10
10.343982
   20
1.058871
   30
0.000000
   0
VERTEX
  8
0
   10
10.389267
   20
1.060173
   30
0.000000
   0
VERTEX
  8
0
   10
10.434552
   20
1.061460
   30
0.000000
   0
VERTEX
  8
0
   10
10.479840
   20
1.062735
   30
0.000000
   0
VERTEX
  8
0
   10
10.525125
   20
1.063998
   30
0.000000
   0
VERTEX
  8
0
   10
10.570413
   20
1.065246
   30
0.000000
   0
VERTEX
  8
0
   10
10.615698
   20
1.066479
   30
0.000000
   0
VERTEX
  8
0
   10
10.660986
   20
1.067700
   30
0.000000
   0
VERTEX
  8
0
   10
10.706274
   20
1.068909
   30
0.000000
   0
VERTEX
  8
0
   10
10.751562
   20
1.070103
   30
0.000000
   0
VERTEX
  8
0
   10
10.796853
   20
1.071282
   30
0.000000
   0
VERTEX
  8
0
   10
10.842141
   20
1.072449
   30
0.000000
   0
VERTEX
  8
0
   10
10.887429
   20
1.073604
   30
0.000000
   0
VERTEX
  8
0
   10
10.932720
   20
1.074744
   30
0.000000
   0
VERTEX
  8
0
   10
10.978011
   20
1.075872
   30
0.000000
   0
VERTEX
  8
0
   10
11.023299
   20
1.076985
   30
0.000000
   0
VERTEX
  8
0
   10
11.068590
   20
1.078086
   30
0.000000
   0
VERTEX
  8
0
   10
11.113881
   20
1.079175
   30
0.000000
   0
VERTEX
  8
0
   10
11.159172
   20
1.080249
   30
0.000000
   0
VERTEX
  8
0
   10
11.204463
   20
1.081308
   30
0.000000
   0
VERTEX
  8
0
   10
11.249757
   20
1.082358
   30
0.000000
   0
VERTEX
  8
0
   10
11.295048
   20
1.083393
   30
0.000000
   0
VERTEX
  8
0
   10
11.340342
   20
1.084413
   30
0.000000
   0
VERTEX
  8
0
   10
11.385633
   20
1.085421
   30
0.000000
   0
VERTEX
  8
0
   10
11.430927
   20
1.086417
   30
0.000000
   0
VERTEX
  8
0
   10
11.476221
   20
1.087401
   30
0.000000
   0
VERTEX
  8
0
   10
11.521515
   20
1.088370
   30
0.000000
   0
VERTEX
  8
0
   10
11.566809
   20
1.089327
   30
0.000000
   0
VERTEX
  8
0
   10
11.612103
   20
1.090269
   30
0.000000
   0
VERTEX
  8
0
   10
11.657397
   20
1.091199
   30
0.000000
   0
VERTEX
  8
0
   10
11.702691
   20
1.092117
   30
0.000000
   0
VERTEX
  8
0
   10
11.747985
   20
1.093020
   30
0.000000
   0
VERTEX
  8
0
   10
11.793282
   20
1.093914
   30
0.000000
   0
VERTEX
  8
0
   10
11.838576
   20
1.094793
   30
0.000000
   0
VERTEX
  8
0
   10
11.883873
   20
1.095657
   30
0.000000
   0
VERTEX
  8
0
   10
11.929167
   20
1.096509
   30
0.000000
   0
VERTEX
  8
0
   10
11.974464
   20
1.097349
   30
0.000000
   0
VERTEX
  8
0
   10
12.019761
   20
1.098177
   30
0.000000
   0
VERTEX
  8
0
   10
12.065058
   20
1.098993
   30
0.000000
   0
VERTEX
  8
0
   10
12.110355
   20
1.099794
   30
0.000000
   0
VERTEX
  8
0
   10
12.155652
   20
1.100583
   30
0.000000
   0
VERTEX
  8
0
   10
12.200949
   20
1.101360
   30
0.000000
   0
VERTEX
  8
0
   10
12.246246
   20
1.102122
   30
0.000000
   0
VERTEX
  8
0
   10
12.291543
   20
1.102872
   30
0.000000
   0
VERTEX
  8
0
   10
12.336843
   20
1.103610
   30
0.000000
   0
VERTEX
  8
0
   10
12.382140
   20
1.104336
   30
0.000000
   0
VERTEX
  8
0
   10
12.427440
   20
1.105050
   30
0.000000
   0
VERTEX
  8
0
   10
12.472737
   20
1.105749
   30
0.000000
   0
VERTEX
  8
0
   10
12.518037
   20
1.106436
   30
0.000000
   0
VERTEX
  8
0
   10
12.563334
   20
1.107111
   30
0.000000
   0
VERTEX
  8
0
   10
12.608634
   20
1.107771
   30
0.000000
   0
VERTEX
  8
0
   10
12.653934
   20
1.108422
   30
0.000000
   0
VERTEX
  8
0
   10
12.699234
   20
1.109058
   30
0.000000
   0
VERTEX
  8
0
   10
12.744534
   20
1.109682
   30
0.000000
   0
VERTEX
  8
0
   10
12.789834
   20
1.110294
   30
0.000000
   0
VERTEX
  8
0
   10
12.835134
   20
1.110894
   30
0.000000
   0
VERTEX
  8
0
   10
12.880434
   20
1.111479
   30
0.000000
   0
VERTEX
  8
0
   10
12.925734
   20
1.112052
   30
0.000000
   0
VERTEX
  8
0
   10
12.971034
   20
1.112613
   30
0.000000
   0
VERTEX
  8
0
   10
13.016334
   20
1.113162
   30
0.000000
   0
VERTEX
  8
0
   10
13.061637
   20
1.113699
   30
0.000000
   0
VERTEX
  8
0
   10
13.106937
   20
1.114221
   30
0.000000
   0
VERTEX
  8
0
   10
13.152237
   20
1.114731
   30
0.000000
   0
VERTEX
  8
0
   10
13.197540
   20
1.115232
   30
0.000000
   0
VERTEX
  8
0
   10
13.242840
   20
1.115718
   30
0.000000
   0
VERTEX
  8
0
   10
13.288143
   20
1.116189
   30
0.000000
   0
VERTEX
  8
0
   10
13.333443
   20
1.116651
   30
0.000000
   0
VERTEX
  8
0
   10
13.378746
   20
1.117101
   30
0.000000
   0
VERTEX
  8
0
   10
13.424046
   20
1.117536
   30
0.000000
   0
VERTEX
  8
0
   10
13.469349
   20
1.117959
   30
0.000000
   0
VERTEX
  8
0
   10
13.514652
   20
1.118370
   30
0.000000
   0
VERTEX
  8
0
   10
13.559955
   20
1.118769
   30
0.000000
   0
VERTEX
  8
0
   10
13.605255
   20
1.119156
   30
0.000000
   0
VERTEX
  8
0
   10
13.650558
   20
1.119531
   30
0.000000
   0
VERTEX
  8
0
   10
13.695861
   20
1.119891
   30
0.000000
   0
VERTEX
  8
0
   10
13.741164
   20
1.120242
   30
0.000000
   0
VERTEX
  8
0
   10
13.786467
   20
1.120578
   30
0.000000
   0
VERTEX
  8
0
   10
13.831770
   20
1.120902
   30
0.000000
   0
VERTEX
  8
0
   10
13.877073
   20
1.121214
   30
0.000000
   0
VERTEX
  8
0
   10
13.922376
   20
1.121514
   30
0.000000
   0
VERTEX
  8
0
   10
13.967679
   20
1.121802
   30
0.000000
   0
VERTEX
  8
0
   10
14.012982
   20
1.122075
   30
0.000000
   0
VERTEX
  8
0
   10
14.058285
   20
1.122339
   30
0.000000
   0
VERTEX
  8
0
   10
14.103588
   20
1.122588
   30
0.000000
   0
VERTEX
  8
0
   10
14.148891
   20
1.122825
   30
0.000000
   0
VERTEX
  8
0
   10
14.194194
   20
1.123053
   30
0.000000
   0
VERTEX
  8
0
   10
14.239497
   20
1.123266
   30
0.000000
   0
VERTEX
  8
0
   10
14.284803
   20
1.123467
   30
0.000000
   0
VERTEX
  8
0
   10
14.330106
   20
1.123653
   30
0.000000
   0
VERTEX
  8
0
   10
14.375409
   20
1.123830
   30
0.000000
   0
VERTEX
  8
0
   10
14.420712
   20
1.123995
   30
0.000000
   0
VERTEX
  8
0
   10
14.466018
   20
1.124145
   30
0.000000
   0
VERTEX
  8
0
   10
14.511321
   20
1.124283
   30
0.000000
   0
VERTEX
  8
0
   10
14.556624
   20
1.124412
   30
0.000000
   0
VERTEX
  8
0
   10
14.601927
   20
1.124526
   30
0.000000
   0
VERTEX
  8
0
   10
14.647233
   20
1.124628
   30
0.000000
   0
VERTEX
  8
0
   10
14.692536
   20
1.124718
   30
0.000000
   0
VERTEX
  8
0
   10
14.737839
   20
1.124793
   30
0.000000
   0
VERTEX
  8
0
   10
14.783145
   20
1.124859
   30
0.000000
   0
VERTEX
  8
0
   10
14.828448
   20
1.124913
   30
0.000000
   0
VERTEX
  8
0
   10
14.873751
   20
1.124952
   30
0.000000
   0
VERTEX
  8
0
   10
14.919057
   20
1.124979
   30
0.000000
   0
VERTEX
  8
0
   10
14.964360
   20
1.124997
   30
0.000000
   0
VERTEX
  8
0
   10
15.009663
   20
1.125000
   30
0.000000
   0
VERTEX
  8
0
   10
15.054969
   20
1.124991
   30
0.000000
   0
VERTEX
  8
0
   10
15.100272
   20
1.124970
   30
0.000000
   0
VERTEX
  8
0
   10
15.145575
   20
1.124937
   30
0.000000
   0
VERTEX
  8
0
   10
15.190881
   20
1.124892
   30
0.000000
   0
VERTEX
  8
0
   10
15.236184
   20
1.124832
   30
0.000000
   0
VERTEX
  8
0
   10
15.281487
   20
1.124763
   30
0.000000
   0
VERTEX
  8
0
   10
15.326790
   20
1.124679
   30
0.000000
   0
VERTEX
  8
0
   10
15.372096
   20
1.124586
   30
0.000000
   0
VERTEX
  8
0
   10
15.417399
   20
1.124478
   30
0.000000
   0
VERTEX
  8
0
   10
15.462702
   20
1.124358
   30
0.000000
   0
VERTEX
  8
0
   10
15.508008
   20
1.124226
   30
0.000000
   0
VERTEX
  8
0
   10
15.553311
   20
1.124082
   30
0.000000
   0
VERTEX
  8
0
   10
15.598614
   20
1.123926
   30
0.000000
   0
VERTEX
  8
0
   10
15.643917
   20
1.123758
   30
0.000000
   0
VERTEX
  8
0
   10
15.689223
   20
1.123575
   30
0.000000
   0
VERTEX
  8
0
   10
15.734526
   20
1.123383
   30
0.000000
   0
VERTEX
  8
0
   10
15.779829
   20
1.123176
   30
0.000000
   0
VERTEX
  8
0
   10
15.825132
   20
1.122957
   30
0.000000
   0
VERTEX
  8
0
   10
15.870435
   20
1.122726
   30
0.000000
   0
VERTEX
  8
0
   10
15.915738
   20
1.122483
   30
0.000000
   0
VERTEX
  8
0
   10
15.961041
   20
1.122228
   30
0.000000
   0
VERTEX
  8
0
   10
16.006348
   20
1.121961
   30
0.000000
   0
VERTEX
  8
0
   10
16.051649
   20
1.121679
   30
0.000000
   0
VERTEX
  8
0
   10
16.096952
   20
1.121388
   30
0.000000
   0
VERTEX
  8
0
   10
16.142256
   20
1.121082
   30
0.000000
   0
VERTEX
  8
0
   10
16.187559
   20
1.120764
   30
0.000000
   0
VERTEX
  8
0
   10
16.232859
   20
1.120437
   30
0.000000
   0
VERTEX
  8
0
   10
16.278162
   20
1.120095
   30
0.000000
   0
VERTEX
  8
0
   10
16.323465
   20
1.119738
   30
0.000000
   0
VERTEX
  8
0
   10
16.368769
   20
1.119372
   30
0.000000
   0
VERTEX
  8
0
   10
16.414070
   20
1.118994
   30
0.000000
   0
VERTEX
  8
0
   10
16.459373
   20
1.118601
   30
0.000000
   0
VERTEX
  8
0
   10
16.504675
   20
1.118196
   30
0.000000
   0
VERTEX
  8
0
   10
16.549976
   20
1.117779
   30
0.000000
   0
VERTEX
  8
0
   10
16.595280
   20
1.117350
   30
0.000000
   0
VERTEX
  8
0
   10
16.640579
   20
1.116909
   30
0.000000
   0
VERTEX
  8
0
   10
16.685883
   20
1.116456
   30
0.000000
   0
VERTEX
  8
0
   10
16.731182
   20
1.115991
   30
0.000000
   0
VERTEX
  8
0
   10
16.776485
   20
1.115511
   30
0.000000
   0
VERTEX
  8
0
   10
16.821787
   20
1.115019
   30
0.000000
   0
VERTEX
  8
0
   10
16.867088
   20
1.114515
   30
0.000000
   0
VERTEX
  8
0
   10
16.912390
   20
1.113999
   30
0.000000
   0
VERTEX
  8
0
   10
16.957689
   20
1.113471
   30
0.000000
   0
VERTEX
  8
0
   10
17.002993
   20
1.112928
   30
0.000000
   0
VERTEX
  8
0
   10
17.048292
   20
1.112376
   30
0.000000
   0
VERTEX
  8
0
   10
17.093592
   20
1.111809
   30
0.000000
   0
VERTEX
  8
0
   10
17.138891
   20
1.111230
   30
0.000000
   0
VERTEX
  8
0
   10
17.184193
   20
1.110639
   30
0.000000
   0
VERTEX
  8
0
   10
17.229492
   20
1.110033
   30
0.000000
   0
VERTEX
  8
0
   10
17.274792
   20
1.109418
   30
0.000000
   0
VERTEX
  8
0
   10
17.320091
   20
1.108788
   30
0.000000
   0
VERTEX
  8
0
   10
17.365393
   20
1.108146
   30
0.000000
   0
VERTEX
  8
0
   10
17.410692
   20
1.107492
   30
0.000000
   0
VERTEX
  8
0
   10
17.455990
   20
1.106823
   30
0.000000
   0
VERTEX
  8
0
   10
17.501289
   20
1.106145
   30
0.000000
   0
VERTEX
  8
0
   10
17.546585
   20
1.105452
   30
0.000000
   0
VERTEX
  8
0
   10
17.591887
   20
1.104747
   30
0.000000
   0
VERTEX
  8
0
   10
17.637182
   20
1.104027
   30
0.000000
   0
VERTEX
  8
0
   10
17.682484
   20
1.103298
   30
0.000000
   0
VERTEX
  8
0
   10
17.727779
   20
1.102554
   30
0.000000
   0
VERTEX
  8
0
   10
17.773077
   20
1.101798
   30
0.000000
   0
VERTEX
  8
0
   10
17.818375
   20
1.101030
   30
0.000000
   0
VERTEX
  8
0
   10
17.863674
   20
1.100247
   30
0.000000
   0
VERTEX
  8
0
   10
17.908972
   20
1.099452
   30
0.000000
   0
VERTEX
  8
0
   10
17.954268
   20
1.098645
   30
0.000000
   0
VERTEX
  8
0
   10
17.999561
   20
1.097826
   30
0.000000
   0
VERTEX
  8
0
   10
18.044859
   20
1.096995
   30
0.000000
   0
VERTEX
  8
0
   10
18.090157
   20
1.096149
   30
0.000000
   0
VERTEX
  8
0
   10
18.135450
   20
1.095291
   30
0.000000
   0
VERTEX
  8
0
   10
18.180746
   20
1.094418
   30
0.000000
   0
VERTEX
  8
0
   10
18.226042
   20
1.093533
   30
0.000000
   0
VERTEX
  8
0
   10
18.271338
   20
1.092636
   30
0.000000
   0
VERTEX
  8
0
   10
18.316631
   20
1.091727
   30
0.000000
   0
VERTEX
  8
0
   10
18.361925
   20
1.090806
   30
0.000000
   0
VERTEX
  8
0
   10
18.407221
   20
1.089870
   30
0.000000
   0
VERTEX
  8
0
   10
18.452515
   20
1.088919
   30
0.000000
   0
VERTEX
  8
0
   10
18.497808
   20
1.087959
   30
0.000000
   0
VERTEX
  8
0
   10
18.543102
   20
1.086984
   30
0.000000
   0
VERTEX
  8
0
   10
18.588396
   20
1.085994
   30
0.000000
   0
VERTEX
  8
0
   10
18.633690
   20
1.084995
   30
0.000000
   0
VERTEX
  8
0
   10
18.678982
   20
1.083981
   30
0.000000
   0
VERTEX
  8
0
   10
18.724276
   20
1.082952
   30
0.000000
   0
VERTEX
  8
0
   10
18.769566
   20
1.081914
   30
0.000000
   0
VERTEX
  8
0
   10
18.814857
   20
1.080858
   30
0.000000
   0
VERTEX
  8
0
   10
18.860147
   20
1.079793
   30
0.000000
   0
VERTEX
  8
0
   10
18.905439
   20
1.078713
   30
0.000000
   0
VERTEX
  8
0
   10
18.950729
   20
1.077618
   30
0.000000
   0
VERTEX
  8
0
   10
18.996021
   20
1.076514
   30
0.000000
   0
VERTEX
  8
0
   10
19.041311
   20
1.075392
   30
0.000000
   0
VERTEX
  8
0
   10
19.086603
   20
1.074261
   30
0.000000
   0
VERTEX
  8
0
   10
19.131891
   20
1.073115
   30
0.000000
   0
VERTEX
  8
0
   10
19.177179
   20
1.071954
   30
0.000000
   0
VERTEX
  8
0
   10
19.222469
   20
1.070781
   30
0.000000
   0
VERTEX
  8
0
   10
19.267757
   20
1.069596
   30
0.000000
   0
VERTEX
  8
0
   10
19.313046
   20
1.068396
   30
0.000000
   0
VERTEX
  8
0
   10
19.358334
   20
1.067181
   30
0.000000
   0
VERTEX
  8
0
   10
19.403622
   20
1.065954
   30
0.000000
   0
VERTEX
  8
0
   10
19.448908
   20
1.064715
   30
0.000000
   0
VERTEX
  8
0
   10
19.494196
   20
1.063461
   30
0.000000
   0
VERTEX
  8
0
   10
19.539480
   20
1.062195
   30
0.000000
   0
VERTEX
  8
0
   10
19.584768
   20
1.060914
   30
0.000000
   0
VERTEX
  8
0
   10
19.630053
   20
1.059618
   30
0.000000
   0
VERTEX
  8
0
   10
19.675339
   20
1.058310
   30
0.000000
   0
VERTEX
  8
0
   10
19.720623
   20
1.056990
   30
0.000000
   0
VERTEX
  8
0
   10
19.765905
   20
1.055655
   30
0.000000
   0
VERTEX
  8
0
   10
19.811190
   20
1.054305
   30
0.000000
   0
VERTEX
  8
0
   10
19.856476
   20
1.052943
   30
0.000000
   0
VERTEX
  8
0
   10
19.901756
   20
1.051566
   30
0.000000
   0
VERTEX
  8
0
   10
19.947039
   20
1.050177
   30
0.000000
   0
VERTEX
  8
0
   10
19.992321
   20
1.048770
   30
0.000000
   0
VERTEX
  8
0
   10
20.037603
   20
1.047354
   30
0.000000
   0
VERTEX
  8
0
   10
20.082886
   20
1.045920
   30
0.000000
   0
VERTEX
  8
0
   10
20.128166
   20
1.044477
   30
0.000000
   0
VERTEX
  8
0
   10
20.173447
   20
1.043016
   30
0.000000
   0
VERTEX
  8
0
   10
20.218725
   20
1.041543
   30
0.000000
   0
VERTEX
  8
0
   10
20.264008
   20
1.040055
   30
0.000000
   0
VERTEX
  8
0
   10
20.309286
   20
1.038552
   30
0.000000
   0
VERTEX
  8
0
   10
20.354563
   20
1.037037
   30
0.000000
   0
VERTEX
  8
0
   10
20.399841
   20
1.035507
   30
0.000000
   0
VERTEX
  8
0
   10
20.445120
   20
1.033962
   30
0.000000
   0
VERTEX
  8
0
   10
20.490396
   20
1.032402
   30
0.000000
   0
VERTEX
  8
0
   10
20.535671
   20
1.030830
   30
0.000000
   0
VERTEX
  8
0
   10
20.580948
   20
1.029243
   30
0.000000
   0
VERTEX
  8
0
   10
20.626225
   20
1.027641
   30
0.000000
   0
VERTEX
  8
0
   10
20.671499
   20
1.026027
   30
0.000000
   0
VERTEX
  8
0
   10
20.716776
   20
1.024395
   30
0.000000
   0
VERTEX
  8
0
   10
20.762049
   20
1.022751
   30
0.000000
   0
VERTEX
  8
0
   10
20.807322
   20
1.021092
   30
0.000000
   0
VERTEX
  8
0
   10
20.852594
   20
1.019418
   30
0.000000
   0
VERTEX
  8
0
   10
20.897867
   20
1.017732
   30
0.000000
   0
VERTEX
  8
0
   10
20.943142
   20
1.016028
   30
0.000000
   0
VERTEX
  8
0
   10
20.988411
   20
1.014312
   30
0.000000
   0
VERTEX
  8
0
   10
21.033684
   20
1.012581
   30
0.000000
   0
VERTEX
  8
0
   10
21.078955
   20
1.010835
   30
0.000000
   0
VERTEX
  8
0
   10
21.124224
   20
1.009074
   30
0.000000
   0
VERTEX
  8
0
   10
21.169491
   20
1.007298
   30
0.000000
   0
VERTEX
  8
0
   10
21.214762
   20
1.005507
   30
0.000000
   0
VERTEX
  8
0
   10
21.260029
   20
1.003701
   30
0.000000
   0
VERTEX
  8
0
   10
21.305296
   20
1.001883
   30
0.000000
   0
VERTEX
  8
0
   10
21.350561
   20
1.000047
   30
0.000000
   0
VERTEX
  8
0
   10
21.395828
   20
0.998196
   30
0.000000
   0
VERTEX
  8
0
   10
21.441095
   20
0.996330
   30
0.000000
   0
VERTEX
  8
0
   10
21.486361
   20
0.994449
   30
0.000000
   0
VERTEX
  8
0
   10
21.531624
   20
0.992553
   30
0.000000
   0
VERTEX
  8
0
   10
21.576887
   20
0.990642
   30
0.000000
   0
VERTEX
  8
0
   10
21.622149
   20
0.988713
   30
0.000000
   0
VERTEX
  8
0
   10
21.667414
   20
0.986772
   30
0.000000
   0
VERTEX
  8
0
   10
21.712673
   20
0.984813
   30
0.000000
   0
VERTEX
  8
0
   10
21.757935
   20
0.982839
   30
0.000000
   0
VERTEX
  8
0
   10
21.803196
   20
0.980850
   30
0.000000
   0
VERTEX
  8
0
   10
21.848454
   20
0.978846
   30
0.000000
   0
VERTEX
  8
0
   10
21.893715
   20
0.976824
   30
0.000000
   0
VERTEX
  8
0
   10
21.938972
   20
0.974787
   30
0.000000
   0
VERTEX
  8
0
   10
21.984232
   20
0.972732
   30
0.000000
   0
VERTEX
  8
0
   10
22.029486
   20
0.970665
   30
0.000000
   0
VERTEX
  8
0
   10
22.074741
   20
0.968580
   30
0.000000
   0
VERTEX
  8
0
   10
22.119999
   20
0.966477
   30
0.000000
   0
VERTEX
  8
0
   10
22.165251
   20
0.964359
   30
0.000000
   0
VERTEX
  8
0
   10
22.210506
   20
0.962226
   30
0.000000
   0
VERTEX
  8
0
   10
22.255758
   20
0.960075
   30
0.000000
   0
VERTEX
  8
0
   10
22.301010
   20
0.957909
   30
0.000000
   0
VERTEX
  8
0
   10
22.346262
   20
0.955725
   30
0.000000
   0
VERTEX
  8
0
   10
22.391514
   20
0.953526
   30
0.000000
   0
VERTEX
  8
0
   10
22.436764
   20
0.951309
   30
0.000000
   0
VERTEX
  8
0
   10
22.482012
   20
0.949074
   30
0.000000
   0
VERTEX
  8
0
   10
22.527262
   20
0.946824
   30
0.000000
   0
VERTEX
  8
0
   10
22.572508
   20
0.944559
   30
0.000000
   0
VERTEX
  8
0
   10
22.617752
   20
0.942273
   30
0.000000
   0
VERTEX
  8
0
   10
22.662998
   20
0.939972
   30
0.000000
   0
VERTEX
  8
0
   10
22.708242
   20
0.937656
   30
0.000000
   0
VERTEX
  8
0
   10
22.753489
   20
0.935319
   30
0.000000
   0
VERTEX
  8
0
   10
22.798731
   20
0.932967
   30
0.000000
   0
VERTEX
  8
0
   10
22.843971
   20
0.930600
   30
0.000000
   0
VERTEX
  8
0
   10
22.889214
   20
0.928212
   30
0.000000
   0
VERTEX
  8
0
   10
22.934454
   20
0.925809
   30
0.000000
   0
VERTEX
  8
0
   10
22.979694
   20
0.923388
   30
0.000000
   0
VERTEX
  8
0
   10
23.024931
   20
0.920949
   30
0.000000
   0
VERTEX
  8
0
   10
23.070168
   20
0.918492
   30
0.000000
   0
VERTEX
  8
0
   10
23.115404
   20
0.916017
   30
0.000000
   0
VERTEX
  8
0
   10
23.160639
   20
0.913527
   30
0.000000
   0
VERTEX
  8
0
   10
23.205875
   20
0.911016
   30
0.000000
   0
VERTEX
  8
0
   10
23.251106
   20
0.908490
   30
0.000000
   0
VERTEX
  8
0
   10
23.296341
   20
0.905946
   30
0.000000
   0
VERTEX
  8
0
   10
23.341572
   20
0.903384
   30
0.000000
   0
VERTEX
  8
0
   10
23.386803
   20
0.900801
   30
0.000000
   0
VERTEX
  8
0
   10
23.432032
   20
0.898203
   30
0.000000
   0
VERTEX
  8
0
   10
23.477259
   20
0.895587
   30
0.000000
   0
VERTEX
  8
0
   10
23.522488
   20
0.892953
   30
0.000000
   0
VERTEX
  8
0
   10
23.567715
   20
0.890301
   30
0.000000
   0
VERTEX
  8
0
   10
23.612940
   20
0.887628
   30
0.000000
   0
VERTEX
  8
0
   10
23.658161
   20
0.884940
   30
0.000000
   0
VERTEX
  8
0
   10
23.703386
   20
0.882231
   30
0.000000
   0
VERTEX
  8
0
   10
23.748610
   20
0.879507
   30
0.000000
   0
VERTEX
  8
0
   10
23.793827
   20
0.876762
   30
0.000000
   0
VERTEX
  8
0
   10
23.839050
   20
0.873999
   30
0.000000
   0
VERTEX
  8
0
   10
23.884266
   20
0.871215
   30
0.000000
   0
VERTEX
  8
0
   10
23.929485
   20
0.868416
   30
0.000000
   0
VERTEX
  8
0
   10
23.974701
   20
0.865596
   30
0.000000
   0
VERTEX
  8
0
   10
24.019917
   20
0.862758
   30
0.000000
   0
VERTEX
  8
0
   10
24.065130
   20
0.859902
   30
0.000000
   0
VERTEX
  8
0
   10
24.110344
   20
0.857028
   30
0.000000
   0
VERTEX
  8
0
   10
24.155554
   20
0.854130
   30
0.000000
   0
VERTEX
  8
0
   10
24.200764
   20
0.851217
   30
0.000000
   0
VERTEX
  8
0
   10
24.245974
   20
0.848280
   30
0.000000
   0
VERTEX
  8
0
   10
24.291180
   20
0.845325
   30
0.000000
   0
VERTEX
  8
0
   10
24.336388
   20
0.842346
   30
0.000000
   0
VERTEX
  8
0
   10
24.381592
   20
0.839349
   30
0.000000
   0
VERTEX
  8
0
   10
24.426794
   20
0.836328
   30
0.000000
   0
VERTEX
  8
0
   10
24.471996
   20
0.833289
   30
0.000000
   0
VERTEX
  8
0
   10
24.517197
   20
0.830223
   30
0.000000
   0
VERTEX
  8
0
   10
24.562395
   20
0.827139
   30
0.000000
   0
VERTEX
  8
0
   10
24.607594
   20
0.824031
   30
0.000000
   0
VERTEX
  8
0
   10
24.652788
   20
0.820899
   30
0.000000
   0
VERTEX
  8
0
   10
24.697983
   20
0.817743
   30
0.000000
   0
VERTEX
  8
0
   10
24.743176
   20
0.814563
   30
0.000000
   0
VERTEX
  8
0
   10
24.788364
   20
0.811362
   30
0.000000
   0
VERTEX
  8
0
   10
24.833553
   20
0.808134
   30
0.000000
   0
VERTEX
  8
0
   10
24.878742
   20
0.804882
   30
0.000000
   0
VERTEX
  8
0
   10
24.923925
   20
0.801606
   30
0.000000
   0
VERTEX
  8
0
   10
24.969109
   20
0.798303
   30
0.000000
   0
VERTEX
  8
0
   10
25.014292
   20
0.794976
   30
0.000000
   0
VERTEX
  8
0
   10
25.059471
   20
0.791622
   30
0.000000
   0
VERTEX
  8
0
   10
25.104649
   20
0.788241
   30
0.000000
   0
VERTEX
  8
0
   10
25.149824
   20
0.784836
   30
0.000000
   0
VERTEX
  8
0
   10
25.195000
   20
0.781404
   30
0.000000
   0
VERTEX
  8
0
   10
25.240170
   20
0.777942
   30
0.000000
   0
VERTEX
  8
0
   10
25.285337
   20
0.774456
   30
0.000000
   0
VERTEX
  8
0
   10
25.330505
   20
0.770940
   30
0.000000
   0
VERTEX
  8
0
   10
25.375671
   20
0.767394
   30
0.000000
   0
VERTEX
  8
0
   10
25.420835
   20
0.763824
   30
0.000000
   0
VERTEX
  8
0
   10
25.465996
   20
0.760221
   30
0.000000
   0
VERTEX
  8
0
   10
25.511154
   20
0.756591
   30
0.000000
   0
VERTEX
  8
0
   10
25.556311
   20
0.752934
   30
0.000000
   0
VERTEX
  8
0
   10
25.601463
   20
0.749244
   30
0.000000
   0
VERTEX
  8
0
   10
25.646616
   20
0.745527
   30
0.000000
   0
VERTEX
  8
0
   10
25.691763
   20
0.741780
   30
0.000000
   0
VERTEX
  8
0
   10
25.736910
   20
0.738006
   30
0.000000
   0
VERTEX
  8
0
   10
25.782055
   20
0.734199
   30
0.000000
   0
VERTEX
  8
0
   10
25.827194
   20
0.730368
   30
0.000000
   0
VERTEX
  8
0
   10
25.872334
   20
0.726507
   30
0.000000
   0
VERTEX
  8
0
   10
25.917471
   20
0.722616
   30
0.000000
   0
VERTEX
  8
0
   10
25.962606
   20
0.718698
   30
0.000000
   0
VERTEX
  8
0
   10
26.007738
   20
0.714753
   30
0.000000
   0
VERTEX
  8
0
   10
26.052868
   20
0.710778
   30
0.000000
   0
VERTEX
  8
0
   10
26.097994
   20
0.706776
   30
0.000000
   0
VERTEX
  8
0
   10
26.143120
   20
0.702744
   30
0.000000
   0
VERTEX
  8
0
   10
26.188238
   20
0.698688
   30
0.000000
   0
VERTEX
  8
0
   10
26.233358
   20
0.694602
   30
0.000000
   0
VERTEX
  8
0
   10
26.278477
   20
0.690489
   30
0.000000
   0
VERTEX
  8
0
   10
26.323589
   20
0.686346
   30
0.000000
   0
VERTEX
  8
0
   10
26.368702
   20
0.682179
   30
0.000000
   0
VERTEX
  8
0
   10
26.413813
   20
0.677982
   30
0.000000
   0
VERTEX
  8
0
   10
26.458918
   20
0.673761
   30
0.000000
   0
VERTEX
  8
0
   10
26.504023
   20
0.669510
   30
0.000000
   0
VERTEX
  8
0
   10
26.549124
   20
0.665235
   30
0.000000
   0
VERTEX
  8
0
   10
26.594223
   20
0.660930
   30
0.000000
   0
VERTEX
  8
0
   10
26.639318
   20
0.656601
   30
0.000000
   0
VERTEX
  8
0
   10
26.684416
   20
0.652245
   30
0.000000
   0
VERTEX
  8
0
   10
26.729506
   20
0.647862
   30
0.000000
   0
VERTEX
  8
0
   10
26.774595
   20
0.643452
   30
0.000000
   0
VERTEX
  8
0
   10
26.819681
   20
0.639015
   30
0.000000
   0
VERTEX
  8
0
   10
26.864763
   20
0.634554
   30
0.000000
   0
VERTEX
  8
0
   10
26.909847
   20
0.630066
   30
0.000000
   0
VERTEX
  8
0
   10
26.954926
   20
0.625551
   30
0.000000
   0
VERTEX
  8
0
   10
27.000000
   20
0.621012
   30
0.000000
   0
VERTEX
  8
0
   10
27.000000
   20
0.564052
   30
0.000000
   0
VERTEX
  8
0
   10
26.953920
   20
0.569127
   30
0.000000
   0
VERTEX
  8
0
   10
26.907806
   20
0.573861
   30
0.000000
   0
VERTEX
  8
0
   10
26.861668
   20
0.578241
   30
0.000000
   0
VERTEX
  8
0
   10
26.815496
   20
0.582264
   30
0.000000
   0
VERTEX
  8
0
   10
26.769300
   20
0.585925
   30
0.000000
   0
VERTEX
  8
0
   10
26.723082
   20
0.589216
   30
0.000000
   0
VERTEX
  8
0
   10
26.676844
   20
0.592152
   30
0.000000
   0
VERTEX
  8
0
   10
26.630589
   20
0.594757
   30
0.000000
   0
VERTEX
  8
0
   10
26.584324
   20
0.597057
   30
0.000000
   0
VERTEX
  8
0
   10
26.538048
   20
0.599080
   30
0.000000
   0
VERTEX
  8
0
   10
26.491768
   20
0.600849
   30
0.000000
   0
VERTEX
  8
0
   10
26.445480
   20
0.602390
   30
0.000000
   0
VERTEX
  8
0
   10
26.399187
   20
0.603720
   30
0.000000
   0
VERTEX
  8
0
   10
26.352894
   20
0.604853
   30
0.000000
   0
VERTEX
  8
0
   10
26.306599
   20
0.605809
   30
0.000000
   0
VERTEX
  8
0
   10
26.260302
   20
0.606606
   30
0.000000
   0
VERTEX
  8
0
   10
26.214003
   20
0.607256
   30
0.000000
   0
VERTEX
  8
0
   10
26.167707
   20
0.607786
   30
0.000000
   0
VERTEX
  8
0
   10
26.121408
   20
0.608214
   30
0.000000
   0
VERTEX
  8
0
   10
26.075111
   20
0.608567
   30
0.000000
   0
VERTEX
  8
0
   10
26.028816
   20
0.608866
   30
0.000000
   0
VERTEX
  8
0
   10
25.982519
   20
0.609138
   30
0.000000
   0
VERTEX
  8
0
   10
25.936224
   20
0.609394
   30
0.000000
   0
VERTEX
  8
0
   10
25.889929
   20
0.609645
   30
0.000000
   0
VERTEX
  8
0
   10
25.843632
   20
0.609896
   30
0.000000
   0
VERTEX
  8
0
   10
25.797337
   20
0.610150
   30
0.000000
   0
VERTEX
  8
0
   10
25.751040
   20
0.610413
   30
0.000000
   0
VERTEX
  8
0
   10
25.704744
   20
0.610700
   30
0.000000
   0
VERTEX
  8
0
   10
25.658445
   20
0.611071
   30
0.000000
   0
VERTEX
  8
0
   10
25.612148
   20
0.611598
   30
0.000000
   0
VERTEX
  8
0
   10
25.565853
   20
0.612347
   30
0.000000
   0
VERTEX
  8
0
   10
25.519558
   20
0.613392
   30
0.000000
   0
VERTEX
  8
0
   10
25.473267
   20
0.614783
   30
0.000000
   0
VERTEX
  8
0
   10
25.426977
   20
0.616249
   30
0.000000
   0
VERTEX
  8
0
   10
25.380680
   20
0.617253
   30
0.000000
   0
VERTEX
  8
0
   10
23.640800
   20
0.617253
   30
0.000000
   0
VERTEX
  8
0
   10
23.640800
   20
0.256938
   30
0.000000
   0
VERTEX
  8
0
   10
25.866215
   20
0.256938
   30
0.000000
   0
VERTEX
  8
0
   10
25.879766
   20
0.256950
   30
0.000000
   0
VERTEX
  8
0
   10
25.893318
   20
0.257011
   30
0.000000
   0
VERTEX
  8
0
   10
25.906870
   20
0.257157
   30
0.000000
   0
VERTEX
  8
0
   10
25.920420
   20
0.257425
   30
0.000000
   0
VERTEX
  8
0
   10
25.933964
   20
0.257851
   30
0.000000
   0
VERTEX
  8
0
   10
25.947502
   20
0.258471
   30
0.000000
   0
VERTEX
  8
0
   10
25.961027
   20
0.259314
   30
0.000000
   0
VERTEX
  8
0
   10
25.974537
   20
0.260376
   30
0.000000
   0
VERTEX
  8
0
   10
25.988029
   20
0.261648
   30
0.000000
   0
VERTEX
  8
0
   10
26.001501
   20
0.263119
   30
0.000000
   0
VERTEX
  8
0
   10
26.014952
   20
0.264781
   30
0.000000
   0
VERTEX
  8
0
   10
26.028378
   20
0.266624
   30
0.000000
   0
VERTEX
  8
0
   10
26.041779
   20
0.268640
   30
0.000000
   0
VERTEX
  8
0
   10
26.055151
   20
0.270830
   30
0.000000
   0
VERTEX
  8
0
   10
26.068495
   20
0.273196
   30
0.000000
   0
VERTEX
  8
0
   10
26.081806
   20
0.275739
   30
0.000000
   0
VERTEX
  8
0
   10
26.095081
   20
0.278463
   30
0.000000
   0
VERTEX
  8
0
   10
26.108318
   20
0.281368
   30
0.000000
   0
VERTEX
  8
0
   10
26.121513
   20
0.284456
   30
0.000000
   0
VERTEX
  8
0
   10
26.134665
   20
0.287728
   30
0.000000
   0
VERTEX
  8
0
   10
26.147770
   20
0.291183
   30
0.000000
   0
VERTEX
  8
0
   10
26.160824
   20
0.294819
   30
0.000000
   0
VERTEX
  8
0
   10
26.173826
   20
0.298638
   30
0.000000
   0
VERTEX
  8
0
   10
26.186775
   20
0.302639
   30
0.000000
   0
VERTEX
  8
0
   10
26.199665
   20
0.306820
   30
0.000000
   0
VERTEX
  8
0
   10
26.212498
   20
0.311180
   30
0.000000
   0
VERTEX
  8
0
   10
26.225267
   20
0.315715
   30
0.000000
   0
VERTEX
  8
0
   10
26.237976
   20
0.320423
   30
0.000000
   0
VERTEX
  8
0
   10
26.250620
   20
0.325299
   30
0.000000
   0
VERTEX
  8
0
   10
26.263199
   20
0.330342
   30
0.000000
   0
VERTEX
  8
0
   10
26.275711
   20
0.335547
   30
0.000000
   0
VERTEX
  8
0
   10
26.288153
   20
0.340917
   30
0.000000
   0
VERTEX
  8
0
   10
26.300520
   20
0.346459
   30
0.000000
   0
VERTEX
  8
0
   10
26.312805
   20
0.352181
   30
0.000000
   0
VERTEX
  8
0
   10
26.325001
   20
0.358090
   30
0.000000
   0
VERTEX
  8
0
   10
26.337101
   20
0.364193
   30
0.000000
   0
VERTEX
  8
0
   10
26.349096
   20
0.370499
   30
0.000000
   0
VERTEX
  8
0
   10
26.360981
   20
0.377009
   30
0.000000
   0
VERTEX
  8
0
   10
26.372778
   20
0.383680
   30
0.000000
   0
VERTEX
  8
0
   10
26.384521
   20
0.390444
   30
0.000000
   0
VERTEX
  8
0
   10
26.396248
   20
0.397238
   30
0.000000
   0
VERTEX
  8
0
   10
26.407993
   20
0.403996
   30
0.000000
   0
VERTEX
  8
0
   10
26.419798
   20
0.410654
   30
0.000000
   0
VERTEX
  8
0
   10
26.431694
   20
0.417144
   30
0.000000
   0
VERTEX
  8
0
   10
26.443710
   20
0.423409
   30
0.000000
   0
VERTEX
  8
0
   10
26.455847
   20
0.429440
   30
0.000000
   0
VERTEX
  8
0
   10
26.468090
   20
0.435248
   30
0.000000
   0
VERTEX
  8
0
   10
26.480434
   20
0.440841
   30
0.000000
   0
VERTEX
  8
0
   10
26.492868
   20
0.446231
   30
0.000000
   0
VERTEX
  8
0
   10
26.505384
   20
0.451426
   30
0.000000
   0
VERTEX
  8
0
   10
26.517975
   20
0.456439
   30
0.000000
   0
VERTEX
  8
0
   10
26.530636
   20
0.461275
   30
0.000000
   0
VERTEX
  8
0
   10
26.543360
   20
0.465937
   30
0.000000
   0
VERTEX
  8
0
   10
26.556147
   20
0.470427
   30
0.000000
   0
VERTEX
  8
0
   10
26.568993
   20
0.474745
   30
0.000000
   0
VERTEX
  8
0
   10
26.581894
   20
0.478893
   30
0.000000
   0
VERTEX
  8
0
   10
26.594849
   20
0.482873
   30
0.000000
   0
VERTEX
  8
0
   10
26.607853
   20
0.486687
   30
0.000000
   0
VERTEX
  8
0
   10
26.620903
   20
0.490337
   30
0.000000
   0
VERTEX
  8
0
   10
26.633999
   20
0.493827
   30
0.000000
   0
VERTEX
  8
0
   10
26.647135
   20
0.497158
   30
0.000000
   0
VERTEX
  8
0
   10
26.660309
   20
0.500334
   30
0.000000
   0
VERTEX
  8
0
   10
26.673519
   20
0.503358
   30
0.000000
   0
VERTEX
  8
0
   10
26.686762
   20
0.506232
   30
0.000000
   0
VERTEX
  8
0
   10
26.700037
   20
0.508959
   30
0.000000
   0
VERTEX
  8
0
   10
26.713341
   20
0.511539
   30
0.000000
   0
VERTEX
  8
0
   10
26.726673
   20
0.513973
   30
0.000000
   0
VERTEX
  8
0
   10
26.740030
   20
0.516265
   30
0.000000
   0
VERTEX
  8
0
   10
26.753410
   20
0.518413
   30
0.000000
   0
VERTEX
  8
0
   10
26.766813
   20
0.520421
   30
0.000000
   0
VERTEX
  8
0
   10
26.780235
   20
0.522289
   30
0.000000
   0
VERTEX
  8
0
   10
26.793676
   20
0.524020
   30
0.000000
   0
VERTEX
  8
0
   10
26.807135
   20
0.525615
   30
0.000000
   0
VERTEX
  8
0
   10
26.820606
   20
0.527077
   30
0.000000
   0
VERTEX
  8
0
   10
26.834093
   20
0.528407
   30
0.000000
   0
VERTEX
  8
0
   10
26.847591
   20
0.529607
   30
0.000000
   0
VERTEX
  8
0
   10
26.861101
   20
0.530677
   30
0.000000
   0
VERTEX
  8
0
   10
26.874620
   20
0.531614
   30
0.000000
   0
VERTEX
  8
0
   10
26.888149
   20
0.532415
   30
0.000000
   0
VERTEX
  8
0
   10
26.901686
   20
0.533080
   30
0.000000
   0
VERTEX
  8
0
   10
26.915226
   20
0.533605
   30
0.000000
   0
VERTEX
  8
0
   10
26.928774
   20
0.533989
   30
0.000000
   0
VERTEX
  8
0
   10
26.942324
   20
0.534239
   30
0.000000
   0
VERTEX
  8
0
   10
26.955873
   20
0.534366
   30
0.000000
   0
VERTEX
  8
0
   10
26.969427
   20
0.534381
   30
0.000000
   0
VERTEX
  8
0
   10
26.982979
   20
0.534294
   30
0.000000
   0
VERTEX
  8
0
   10
26.996529
   20
0.534118
   30
0.000000
   0
VERTEX
  8
0
   10
27.010078
   20
0.533862
   30
0.000000
   0
VERTEX
  8
0
   10
27.023626
   20
0.533532
   30
0.000000
   0
VERTEX
  8
0
   10
27.037172
   20
0.533133
   30
0.000000
   0
VERTEX
  8
0
   10
27.050716
   20
0.532668
   30
0.000000
   0
VERTEX
  8
0
   10
27.064259
   20
0.532142
   30
0.000000
   0
VERTEX
  8
0
   10
27.077797
   20
0.531557
   30
0.000000
   0
VERTEX
  8
0
   10
27.091335
   20
0.530918
   30
0.000000
   0
VERTEX
  8
0
   10
27.104870
   20
0.530228
   30
0.000000
   0
VERTEX
  8
0
   10
27.118401
   20
0.529492
   30
0.000000
   0
VERTEX
  8
0
   10
27.131931
   20
0.528712
   30
0.000000
   0
VERTEX
  8
0
   10
27.145458
   20
0.527894
   30
0.000000
   0
VERTEX
  8
0
   10
27.158983
   20
0.527036
   30
0.000000
   0
VERTEX
  8
0
   10
27.172504
   20
0.526138
   30
0.000000
   0
VERTEX
  8
0
   10
27.186024
   20
0.525199
   30
0.000000
   0
VERTEX
  8
0
   10
27.199541
   20
0.524216
   30
0.000000
   0
VERTEX
  8
0
   10
27.213053
   20
0.523190
   30
0.000000
   0
VERTEX
  8
0
   10
27.226562
   20
0.522119
   30
0.000000
   0
VERTEX
  8
0
   10
27.240068
   20
0.521002
   30
0.000000
   0
VERTEX
  8
0
   10
27.253571
   20
0.519836
   30
0.000000
   0
VERTEX
  8
0
   10
27.267069
   20
0.518623
   30
0.000000
   0
VERTEX
  8
0
   10
27.280561
   20
0.517359
   30
0.000000
   0
VERTEX
  8
0
   10
27.294050
   20
0.516046
   30
0.000000
   0
VERTEX
  8
0
   10
27.307533
   20
0.514682
   30
0.000000
   0
VERTEX
  8
0
   10
27.321011
   20
0.513268
   30
0.000000
   0
VERTEX
  8
0
   10
27.334484
   20
0.511804
   30
0.000000
   0
VERTEX
  8
0
   10
27.347950
   20
0.510290
   30
0.000000
   0
VERTEX
  8
0
   10
27.361412
   20
0.508725
   30
0.000000
   0
VERTEX
  8
0
   10
27.374866
   20
0.507110
   30
0.000000
   0
VERTEX
  8
0
   10
27.388317
   20
0.505444
   30
0.000000
   0
VERTEX
  8
0
   10
27.401760
   20
0.503728
   30
0.000000
   0
VERTEX
  8
0
   10
27.415195
   20
0.501962
   30
0.000000
   0
VERTEX
  8
0
   10
27.428625
   20
0.500144
   30
0.000000
   0
VERTEX
  8
0
   10
27.442047
   20
0.498276
   30
0.000000
   0
VERTEX
  8
0
   10
27.455463
   20
0.496355
   30
0.000000
   0
VERTEX
  8
0
   10
27.468870
   20
0.494381
   30
0.000000
   0
VERTEX
  8
0
   10
27.482271
   20
0.492355
   30
0.000000
   0
VERTEX
  8
0
   10
27.495661
   20
0.490274
   30
0.000000
   0
VERTEX
  8
0
   10
27.509045
   20
0.488139
   30
0.000000
   0
VERTEX
  8
0
   10
27.522419
   20
0.485950
   30
0.000000
   0
VERTEX
  8
0
   10
27.535784
   20
0.483705
   30
0.000000
   0
VERTEX
  8
0
   10
27.549139
   20
0.481403
   30
0.000000
   0
VERTEX
  8
0
   10
27.562483
   20
0.479045
   30
0.000000
   0
VERTEX
  8
0
   10
27.575819
   20
0.476630
   30
0.000000
   0
VERTEX
  8
0
   10
27.589144
   20
0.474156
   30
0.000000
   0
VERTEX
  8
0
   10
27.602457
   20
0.471624
   30
0.000000
   0
VERTEX
  8
0
   10
27.615757
   20
0.469031
   30
0.000000
   0
VERTEX
  8
0
   10
27.629047
   20
0.466378
   30
0.000000
   0
VERTEX
  8
0
   10
27.642324
   20
0.463664
   30
0.000000
   0
VERTEX
  8
0
   10
27.655590
   20
0.460887
   30
0.000000
   0
VERTEX
  8
0
   10
27.668840
   20
0.458048
   30
0.000000
   0
VERTEX
  8
0
   10
27.682077
   20
0.455145
   30
0.000000
   0
VERTEX
  8
0
   10
27.695301
   20
0.452178
   30
0.000000
   0
VERTEX
  8
0
   10
27.708509
   20
0.449144
   30
0.000000
   0
VERTEX
  8
0
   10
27.721703
   20
0.446044
   30
0.000000
   0
VERTEX
  8
0
   10
27.734879
   20
0.442876
   30
0.000000
   0
VERTEX
  8
0
   10
27.748037
   20
0.439638
   30
0.000000
   0
VERTEX
  8
0
   10
27.761179
   20
0.436329
   30
0.000000
   0
VERTEX
  8
0
   10
27.774303
   20
0.432948
   30
0.000000
   0
VERTEX
  8
0
   10
27.787407
   20
0.429495
   30
0.000000
   0
VERTEX
  8
0
   10
27.800493
   20
0.425967
   30
0.000000
   0
VERTEX
  8
0
   10
27.813557
   20
0.422363
   30
0.000000
   0
VERTEX
  8
0
   10
27.826599
   20
0.418682
   30
0.000000
   0
VERTEX
  8
0
   10
27.839619
   20
0.414923
   30
0.000000
   0
VERTEX
  8
0
   10
27.852615
   20
0.411082
   30
0.000000
   0
VERTEX
  8
0
   10
27.865587
   20
0.407158
   30
0.000000
   0
VERTEX
  8
0
   10
27.878532
   20
0.403149
   30
0.000000
   0
VERTEX
  8
0
   10
27.891451
   20
0.399052
   30
0.000000
   0
VERTEX
  8
0
   10
27.904339
   20
0.394866
   30
0.000000
   0
VERTEX
  8
0
   10
27.917198
   20
0.390588
   30
0.000000
   0
VERTEX
  8
0
   10
27.930025
   20
0.386216
   30
0.000000
   0
VERTEX
  8
0
   10
27.942822
   20
0.381749
   30
0.000000
   0
VERTEX
  8
0
   10
27.955580
   20
0.377184
   30
0.000000
   0
VERTEX
  8
0
   10
27.968304
   20
0.372518
   30
0.000000
   0
VERTEX
  8
0
   10
27.980988
   20
0.367747
   30
0.000000
   0
VERTEX
  8
0
   10
27.993631
   20
0.362868
   30
0.000000
   0
VERTEX
  8
0
   10
28.006231
   20
0.357878
   30
0.000000
   0
VERTEX
  8
0
   10
28.018784
   20
0.352772
   30
0.000000
   0
VERTEX
  8
0
   10
28.031288
   20
0.347547
   30
0.000000
   0
VERTEX
  8
0
   10
28.043741
   20
0.342200
   30
0.000000
   0
VERTEX
  8
0
   10
28.056139
   20
0.336727
   30
0.000000
   0
VERTEX
  8
0
   10
28.068480
   20
0.331126
   30
0.000000
   0
VERTEX
  8
0
   10
28.080759
   20
0.325393
   30
0.000000
   0
VERTEX
  8
0
   10
28.092974
   20
0.319523
   30
0.000000
   0
VERTEX
  8
0
   10
28.105118
   20
0.313510
   30
0.000000
   0
VERTEX
  8
0
   10
28.117186
   20
0.307342
   30
0.000000
   0
VERTEX
  8
0
   10
28.129168
   20
0.301012
   30
0.000000
   0
VERTEX
  8
0
   10
28.141058
   20
0.294511
   30
0.000000
   0
VERTEX
  8
0
   10
28.152849
   20
0.287829
   30
0.000000
   0
VERTEX
  8
0
   10
28.164530
   20
0.280959
   30
0.000000
   0
VERTEX
  8
0
   10
28.176092
   20
0.273892
   30
0.000000
   0
VERTEX
  8
0
   10
28.187529
   20
0.266620
   30
0.000000
   0
VERTEX
  8
0
   10
28.198826
   20
0.259136
   30
0.000000
   0
VERTEX
  8
0
   10
28.209976
   20
0.251433
   30
0.000000
   0
VERTEX
  8
0
   10
28.220966
   20
0.243504
   30
0.000000
   0
VERTEX
  8
0
   10
28.231779
   20
0.235336
   30
0.000000
   0
VERTEX
  8
0
   10
28.242392
   20
0.226909
   30
0.000000
   0
VERTEX
  8
0
   10
28.252779
   20
0.218205
   30
0.000000
   0
VERTEX
  8
0
   10
28.262911
   20
0.209206
   30
0.000000
   0
VERTEX
  8
0
   10
28.272760
   20
0.199897
   30
0.000000
   0
VERTEX
  8
0
   10
28.282291
   20
0.190265
   30
0.000000
   0
VERTEX
  8
0
   10
28.291473
   20
0.180298
   30
0.000000
   0
VERTEX
  8
0
   10
28.300251
   20
0.169974
   30
0.000000
   0
VERTEX
  8
0
   10
28.308567
   20
0.159276
   30
0.000000
   0
VERTEX
  8
0
   10
28.316360
   20
0.148190
   30
0.000000
   0
VERTEX
  8
0
   10
28.323561
   20
0.136711
   30
0.000000
   0
VERTEX
  8
0
   10
28.330090
   20
0.124837
   30
0.000000
   0
VERTEX
  8
0
   10
28.335857
   20
0.112577
   30
0.000000
   0
VERTEX
  8
0
   10
28.340763
   20
0.099947
   30
0.000000
   0
VERTEX
  8
0
   10
28.344700
   20
0.086983
   30
0.000000
   0
VERTEX
  8
0
   10
28.347597
   20
0.073748
   30
0.000000
   0
VERTEX
  8
0
   10
28.349388
   20
0.060319
   30
0.000000
   0
VERTEX
  8
0
   10
28.350000
   20
0.046786
   30
0.000000
   0
VERTEX
  8
0
   10
28.349382
   20
0.033276
   30
0.000000
   0
VERTEX
  8
0
   10
28.347578
   20
0.019873
   30
0.000000
   0
VERTEX
  8
0
   10
28.344645
   20
0.006671
   30
0.000000
   0
VERTEX
  8
0
   10
28.340633
   20
-0.006245
   30
0.000000
   0
VERTEX
  8
0
   10
28.335613
   20
-0.018803
   30
0.000000
   0
VERTEX
  8
0
   10
28.329687
   20
-0.030962
   30
0.000000
   0
VERTEX
  8
0
   10
28.322966
   20
-0.042699
   30
0.000000
   0
VERTEX
  8
0
   10
28.315540
   20
-0.054004
   30
0.000000
   0
VERTEX
  8
0
   10
28.307493
   20
-0.064877
   30
0.000000
   0
VERTEX
  8
0
   10
28.298901
   20
-0.075323
   30
0.000000
   0
VERTEX
  8
0
   10
28.289829
   20
-0.085359
   30
0.000000
   0
VERTEX
  8
0
   10
28.280346
   20
-0.095005
   30
0.000000
   0
VERTEX
  8
0
   10
28.270500
   20
-0.104281
   30
0.000000
   0
VERTEX
  8
0
   10
28.260332
   20
-0.113204
   30
0.000000
   0
VERTEX
  8
0
   10
28.249878
   20
-0.121787
   30
0.000000
   0
VERTEX
  8
0
   10
28.239166
   20
-0.130050
   30
0.000000
   0
VERTEX
  8
0
   10
28.228231
   20
-0.138013
   30
0.000000
   0
VERTEX
  8
0
   10
28.217100
   20
-0.145700
   30
0.000000
   0
VERTEX
  8
0
   10
28.205795
   20
-0.153129
   30
0.000000
   0
VERTEX
  8
0
   10
28.194332
   20
-0.160315
   30
0.000000
   0
VERTEX
  8
0
   10
28.182726
   20
-0.167263
   30
0.000000
   0
VERTEX
  8
0
   10
28.170984
   20
-0.173983
   30
0.000000
   0
VERTEX
  8
0
   10
28.159121
   20
-0.180483
   30
0.000000
   0
VERTEX
  8
0
   10
28.147144
   20
-0.186773
   30
0.000000
   0
VERTEX
  8
0
   10
28.135063
   20
-0.192862
   30
0.000000
   0
VERTEX
  8
0
   10
28.122890
   20
-0.198760
   30
0.000000
   0
VERTEX
  8
0
   10
28.110630
   20
-0.204478
   30
0.000000
   0
VERTEX
  8
0
   10
28.098291
   20
-0.210026
   30
0.000000
   0
VERTEX
  8
0
   10
28.085882
   20
-0.215414
   30
0.000000
   0
VERTEX
  8
0
   10
28.073410
   20
-0.220652
   30
0.000000
   0
VERTEX
  8
0
   10
28.060879
   20
-0.225748
   30
0.000000
   0
VERTEX
  8
0
   10
28.048292
   20
-0.230705
   30
0.000000
   0
VERTEX
  8
0
   10
28.035652
   20
-0.235527
   30
0.000000
   0
VERTEX
  8
0
   10
28.022963
   20
-0.240217
   30
0.000000
   0
VERTEX
  8
0
   10
28.010227
   20
-0.244780
   30
0.000000
   0
VERTEX
  8
0
   10
27.997448
   20
-0.249219
   30
0.000000
   0
VERTEX
  8
0
   10
27.984629
   20
-0.253538
   30
0.000000
   0
VERTEX
  8
0
   10
27.971769
   20
-0.257741
   30
0.000000
   0
VERTEX
  8
0
   10
27.958876
   20
-0.261833
   30
0.000000
   0
VERTEX
  8
0
   10
27.945948
   20
-0.265817
   30
0.000000
   0
VERTEX
  8
0
   10
27.932987
   20
-0.269697
   30
0.000000
   0
VERTEX
  8
0
   10
27.919998
   20
-0.273476
   30
0.000000
   0
VERTEX
  8
0
   10
27.906981
   20
-0.277157
   30
0.000000
   0
VERTEX
  8
0
   10
27.893936
   20
-0.280740
   30
0.000000
   0
VERTEX
  8
0
   10
27.880865
   20
-0.284230
   30
0.000000
   0
VERTEX
  8
0
   10
27.867771
   20
-0.287628
   30
0.000000
   0
VERTEX
  8
0
   10
27.854654
   20
-0.290936
   30
0.000000
   0
VERTEX
  8
0
   10
27.841515
   20
-0.294158
   30
0.000000
   0
VERTEX
  8
0
   10
27.828356
   20
-0.297294
   30
0.000000
   0
VERTEX
  8
0
   10
27.815176
   20
-0.300348
   30
0.000000
   0
VERTEX
  8
0
   10
27.801979
   20
-0.303322
   30
0.000000
   0
VERTEX
  8
0
   10
27.788765
   20
-0.306217
   30
0.000000
   0
VERTEX
  8
0
   10
27.775534
   20
-0.309036
   30
0.000000
   0
VERTEX
  8
0
   10
27.762287
   20
-0.311778
   30
0.000000
   0
VERTEX
  8
0
   10
27.749025
   20
-0.314447
   30
0.000000
   0
VERTEX
  8
0
   10
27.735748
   20
-0.317042
   30
0.000000
   0
VERTEX
  8
0
   10
27.722458
   20
-0.319566
   30
0.000000
   0
VERTEX
  8
0
   10
27.709154
   20
-0.322019
   30
0.000000
   0
VERTEX
  8
0
   10
27.695837
   20
-0.324404
   30
0.000000
   0
VERTEX
  8
0
   10
27.682508
   20
-0.326721
   30
0.000000
   0
VERTEX
  8
0
   10
27.669168
   20
-0.328972
   30
0.000000
   0
VERTEX
  8
0
   10
27.655819
   20
-0.331157
   30
0.000000
   0
VERTEX
  8
0
   10
27.642458
   20
-0.333279
   30
0.000000
   0
VERTEX
  8
0
   10
27.629087
   20
-0.335337
   30
0.000000
   0
VERTEX
  8
0
   10
27.615707
   20
-0.337332
   30
0.000000
   0
VERTEX
  8
0
   10
27.602318
   20
-0.339266
   30
0.000000
   0
VERTEX
  8
0
   10
27.588921
   20
-0.341139
   30
0.000000
   0
VERTEX
  8
0
   10
27.575514
   20
-0.342952
   30
0.000000
   0
VERTEX
  8
0
   10
27.562101
   20
-0.344705
   30
0.000000
   0
VERTEX
  8
0
   10
27.548679
   20
-0.346401
   30
0.000000
   0
VERTEX
  8
0
   10
27.535252
   20
-0.348039
   30
0.000000
   0
VERTEX
  8
0
   10
27.521816
   20
-0.349620
   30
0.000000
   0
VERTEX
  8
0
   10
27.508373
   20
-0.351145
   30
0.000000
   0
VERTEX
  8
0
   10
27.494926
   20
-0.352615
   30
0.000000
   0
VERTEX
  8
0
   10
27.481472
   20
-0.354030
   30
0.000000
   0
VERTEX
  8
0
   10
27.468012
   20
-0.355390
   30
0.000000
   0
VERTEX
  8
0
   10
27.454548
   20
-0.356697
   30
0.000000
   0
VERTEX
  8
0
   10
27.441078
   20
-0.357952
   30
0.000000
   0
VERTEX
  8
0
   10
27.427603
   20
-0.359154
   30
0.000000
   0
VERTEX
  8
0
   10
27.414124
   20
-0.360304
   30
0.000000
   0
VERTEX
  8
0
   10
27.400640
   20
-0.361403
   30
0.000000
   0
VERTEX
  8
0
   10
27.387154
   20
-0.362451
   30
0.000000
   0
VERTEX
  8
0
   10
27.373663
   20
-0.363449
   30
0.000000
   0
VERTEX
  8
0
   10
27.360167
   20
-0.364397
   30
0.000000
   0
VERTEX
  8
0
   10
27.346668
   20
-0.365294
   30
0.000000
   0
VERTEX
  8
0
   10
27.333168
   20
-0.366141
   30
0.000000
   0
VERTEX
  8
0
   10
27.319662
   20
-0.366938
   30
0.000000
   0
VERTEX
  8
0
   10
27.306156
   20
-0.367684
   30
0.000000
   0
VERTEX
  8
0
   10
27.292645
   20
-0.368381
   30
0.000000
   0
VERTEX
  8
0
   10
27.279133
   20
-0.369027
   30
0.000000
   0
VERTEX
  8
0
   10
27.265617
   20
-0.369624
   30
0.000000
   0
VERTEX
  8
0
   10
27.252100
   20
-0.370171
   30
0.000000
   0
VERTEX
  8
0
   10
27.238583
   20
-0.370670
   30
0.000000
   0
VERTEX
  8
0
   10
27.225061
   20
-0.371122
   30
0.000000
   0
VERTEX
  8
0
   10
27.211540
   20
-0.371528
   30
0.000000
   0
VERTEX
  8
0
   10
27.198015
   20
-0.371890
   30
0.000000
   0
VERTEX
  8
0
   10
27.184492
   20
-0.372208
   30
0.000000
   0
VERTEX
  8
0
   10
27.170967
   20
-0.372485
   30
0.000000
   0
VERTEX
  8
0
   10
27.157440
   20
-0.372720
   30
0.000000
   0
VERTEX
  8
0
   10
27.143913
   20
-0.372916
   30
0.000000
   0
VERTEX
  8
0
   10
27.130386
   20
-0.373073
   30
0.000000
   0
VERTEX
  8
0
   10
27.116859
   20
-0.373191
   30
0.000000
   0
VERTEX
  8
0
   10
27.103331
   20
-0.373267
   30
0.000000
   0
VERTEX
  8
0
   10
27.089804
   20
-0.373296
   30
0.000000
   0
VERTEX
  8
0
   10
27.076275
   20
-0.373275
   30
0.000000
   0
VERTEX
  8
0
   10
27.062748
   20
-0.373200
   30
0.000000
   0
VERTEX
  8
0
   10
27.049219
   20
-0.373067
   30
0.000000
   0
VERTEX
  8
0
   10
27.035692
   20
-0.372872
   30
0.000000
   0
VERTEX
  8
0
   10
27.022167
   20
-0.372613
   30
0.000000
   0
VERTEX
  8
0
   10
27.008644
   20
-0.372284
   30
0.000000
   0
VERTEX
  8
0
   10
26.995121
   20
-0.371882
   30
0.000000
   0
VERTEX
  8
0
   10
26.981602
   20
-0.371401
   30
0.000000
   0
VERTEX
  8
0
   10
26.968086
   20
-0.370830
   30
0.000000
   0
VERTEX
  8
0
   10
26.954575
   20
-0.370159
   30
0.000000
   0
VERTEX
  8
0
   10
26.941069
   20
-0.369376
   30
0.000000
   0
VERTEX
  8
0
   10
26.927572
   20
-0.368471
   30
0.000000
   0
VERTEX
  8
0
   10
26.914083
   20
-0.367433
   30
0.000000
   0
VERTEX
  8
0
   10
26.900606
   20
-0.366257
   30
0.000000
   0
VERTEX
  8
0
   10
26.887142
   20
-0.364945
   30
0.000000
   0
VERTEX
  8
0
   10
26.873692
   20
-0.363499
   30
0.000000
   0
VERTEX
  8
0
   10
26.860256
   20
-0.361922
   30
0.000000
   0
VERTEX
  8
0
   10
26.846836
   20
-0.360215
   30
0.000000
   0
VERTEX
  8
0
   10
26.833433
   20
-0.358382
   30
0.000000
   0
VERTEX
  8
0
   10
26.820047
   20
-0.356422
   30
0.000000
   0
VERTEX
  8
0
   10
26.806681
   20
-0.354335
   30
0.000000
   0
VERTEX
  8
0
   10
26.793335
   20
-0.352119
   30
0.000000
   0
VERTEX
  8
0
   10
26.780012
   20
-0.349773
   30
0.000000
   0
VERTEX
  8
0
   10
26.766714
   20
-0.347294
   30
0.000000
   0
VERTEX
  8
0
   10
26.753441
   20
-0.344681
   30
0.000000
   0
VERTEX
  8
0
   10
26.740194
   20
-0.341932
   30
0.000000
   0
VERTEX
  8
0
   10
26.726978
   20
-0.339047
   30
0.000000
   0
VERTEX
  8
0
   10
26.713793
   20
-0.336025
   30
0.000000
   0
VERTEX
  8
0
   10
26.700638
   20
-0.332864
   30
0.000000
   0
VERTEX
  8
0
   10
26.687519
   20
-0.329564
   30
0.000000
   0
VERTEX
  8
0
   10
26.674437
   20
-0.326123
   30
0.000000
   0
VERTEX
  8
0
   10
26.661390
   20
-0.322540
   30
0.000000
   0
VERTEX
  8
0
   10
26.648386
   20
-0.318812
   30
0.000000
   0
VERTEX
  8
0
   10
26.635426
   20
-0.314939
   30
0.000000
   0
VERTEX
  8
0
   10
26.622509
   20
-0.310916
   30
0.000000
   0
VERTEX
  8
0
   10
26.609642
   20
-0.306741
   30
0.000000
   0
VERTEX
  8
0
   10
26.596825
   20
-0.302413
   30
0.000000
   0
VERTEX
  8
0
   10
26.584061
   20
-0.297929
   30
0.000000
   0
VERTEX
  8
0
   10
26.571354
   20
-0.293287
   30
0.000000
   0
VERTEX
  8
0
   10
26.558706
   20
-0.288486
   30
0.000000
   0
VERTEX
  8
0
   10
26.546122
   20
-0.283525
   30
0.000000
   0
VERTEX
  8
0
   10
26.533600
   20
-0.278403
   30
0.000000
   0
VERTEX
  8
0
   10
26.521147
   20
-0.273119
   30
0.000000
   0
VERTEX
  8
0
   10
26.508764
   20
-0.267671
   30
0.000000
   0
VERTEX
  8
0
   10
26.496458
   20
-0.262055
   30
0.000000
   0
VERTEX
  8
0
   10
26.484232
   20
-0.256263
   30
0.000000
   0
VERTEX
  8
0
   10
26.472097
   20
-0.250284
   30
0.000000
   0
VERTEX
  8
0
   10
26.460060
   20
-0.244110
   30
0.000000
   0
VERTEX
  8
0
   10
26.448130
   20
-0.237733
   30
0.000000
   0
VERTEX
  8
0
   10
26.436316
   20
-0.231143
   30
0.000000
   0
VERTEX
  8
0
   10
26.424623
   20
-0.224338
   30
0.000000
   0
VERTEX
  8
0
   10
26.413038
   20
-0.217353
   30
0.000000
   0
VERTEX
  8
0
   10
26.401525
   20
-0.210251
   30
0.000000
   0
VERTEX
  8
0
   10
26.390049
   20
-0.203089
   30
0.000000
   0
VERTEX
  8
0
   10
26.378572
   20
-0.195926
   30
0.000000
   0
VERTEX
  8
0
   10
26.367060
   20
-0.188821
   30
0.000000
   0
VERTEX
  8
0
   10
26.355476
   20
-0.181832
   30
0.000000
   0
VERTEX
  8
0
   10
26.343792
   20
-0.175017
   30
0.000000
   0
VERTEX
  8
0
   10
26.331997
   20
-0.168393
   30
0.000000
   0
VERTEX
  8
0
   10
26.320101
   20
-0.161952
   30
0.000000
   0
VERTEX
  8
0
   10
26.308109
   20
-0.155690
   30
0.000000
   0
VERTEX
  8
0
   10
26.296030
   20
-0.149599
   30
0.000000
   0
VERTEX
  8
0
   10
26.283869
   20
-0.143673
   30
0.000000
   0
VERTEX
  8
0
   10
26.271633
   20
-0.137904
   30
0.000000
   0
VERTEX
  8
0
   10
26.259325
   20
-0.132288
   30
0.000000
   0
VERTEX
  8
0
   10
26.246950
   20
-0.126824
   30
0.000000
   0
VERTEX
  8
0
   10
26.234507
   20
-0.121518
   30
0.000000
   0
VERTEX
  8
0
   10
26.221994
   20
-0.116372
   30
0.000000
   0
VERTEX
  8
0
   10
26.209417
   20
-0.111389
   30
0.000000
   0
VERTEX
  8
0
   10
26.196775
   20
-0.106574
   30
0.000000
   0
VERTEX
  8
0
   10
26.184071
   20
-0.101930
   30
0.000000
   0
VERTEX
  8
0
   10
26.171303
   20
-0.097458
   30
0.000000
   0
VERTEX
  8
0
   10
26.158476
   20
-0.093159
   30
0.000000
   0
VERTEX
  8
0
   10
26.145594
   20
-0.089031
   30
0.000000
   0
VERTEX
  8
0
   10
26.132656
   20
-0.085075
   30
0.000000
   0
VERTEX
  8
0
   10
26.119669
   20
-0.081289
   30
0.000000
   0
VERTEX
  8
0
   10
26.106632
   20
-0.077675
   30
0.000000
   0
VERTEX
  8
0
   10
26.093550
   20
-0.074231
   30
0.000000
   0
VERTEX
  8
0
   10
26.080423
   20
-0.070961
   30
0.000000
   0
VERTEX
  8
0
   10
26.067253
   20
-0.067869
   30
0.000000
   0
VERTEX
  8
0
   10
26.054043
   20
-0.064957
   30
0.000000
   0
VERTEX
  8
0
   10
26.040792
   20
-0.062228
   30
0.000000
   0
VERTEX
  8
0
   10
26.027506
   20
-0.059687
   30
0.000000
   0
VERTEX
  8
0
   10
26.014185
   20
-0.057335
   30
0.000000
   0
VERTEX
  8
0
   10
26.000832
   20
-0.055163
   30
0.000000
   0
VERTEX
  8
0
   10
25.987452
   20
-0.053164
   30
0.000000
   0
VERTEX
  8
0
   10
25.974049
   20
-0.051329
   30
0.000000
   0
VERTEX
  8
0
   10
25.960627
   20
-0.049648
   30
0.000000
   0
VERTEX
  8
0
   10
25.947186
   20
-0.048113
   30
0.000000
   0
VERTEX
  8
0
   10
25.933729
   20
-0.046721
   30
0.000000
   0
VERTEX
  8
0
   10
25.920256
   20
-0.045501
   30
0.000000
   0
VERTEX
  8
0
   10
25.906767
   20
-0.044488
   30
0.000000
   0
VERTEX
  8
0
   10
25.893261
   20
-0.043720
   30
0.000000
   0
VERTEX
  8
0
   10
25.879742
   20
-0.043233
   30
0.000000
   0
VERTEX
  8
0
   10
25.866215
   20
-0.043062
   30
0.000000
   0
VERTEX
  8
0
   10
23.640800
   20
-0.043062
   30
0.000000
   0
VERTEX
  8
0
   10
23.640800
   20
-0.382746
   30
0.000000
   0
VERTEX
  8
0
   10
25.380680
   20
-0.382746
   30
0.000000
   0
VERTEX
  8
0
   10
25.426977
   20
-0.382786
   30
0.000000
   0
VERTEX
  8
0
   10
25.473255
   20
-0.383705
   30
0.000000
   0
VERTEX
  8
0
   10
25.519522
   20
-0.384937
   30
0.000000
   0
VERTEX
  8
0
   10
25.565784
   20
-0.386168
   30
0.000000
   0
VERTEX
  8
0
   10
25.612049
   20
-0.387415
   30
0.000000
   0
VERTEX
  8
0
   10
25.658314
   20
-0.388703
   30
0.000000
   0
VERTEX
  8
0
   10
25.704573
   20
-0.390070
   30
0.000000
   0
VERTEX
  8
0
   10
25.750828
   20
-0.391544
   30
0.000000
   0
VERTEX
  8
0
   10
25.797077
   20
-0.393151
   30
0.000000
   0
VERTEX
  8
0
   10
25.843321
   20
-0.394866
   30
0.000000
   0
VERTEX
  8
0
   10
25.889563
   20
-0.396650
   30
0.000000
   0
VERTEX
  8
0
   10
25.935799
   20
-0.398476
   30
0.000000
   0
VERTEX
  8
0
   10
25.982037
   20
-0.400307
   30
0.000000
   0
VERTEX
  8
0
   10
26.028276
   20
-0.402109
   30
0.000000
   0
VERTEX
  8
0
   10
26.074518
   20
-0.403866
   30
0.000000
   0
VERTEX
  8
0
   10
26.120764
   20
-0.405560
   30
0.000000
   0
VERTEX
  8
0
   10
26.167011
   20
-0.407178
   30
0.000000
   0
VERTEX
  8
0
   10
26.213264
   20
-0.408713
   30
0.000000
   0
VERTEX
  8
0
   10
26.259521
   20
-0.410149
   30
0.000000
   0
VERTEX
  8
0
   10
26.305782
   20
-0.411467
   30
0.000000
   0
VERTEX
  8
0
   10
26.352051
   20
-0.412639
   30
0.000000
   0
VERTEX
  8
0
   10
26.398327
   20
-0.413633
   30
0.000000
   0
VERTEX
  8
0
   10
26.444607
   20
-0.414414
   30
0.000000
   0
VERTEX
  8
0
   10
26.490894
   20
-0.414952
   30
0.000000
   0
VERTEX
  8
0
   10
26.537188
   20
-0.415221
   30
0.000000
   0
VERTEX
  8
0
   10
26.583483
   20
-0.415225
   30
0.000000
   0
VERTEX
  8
0
   10
26.629786
   20
-0.414992
   30
0.000000
   0
VERTEX
  8
0
   10
26.676085
   20
-0.414543
   30
0.000000
   0
VERTEX
  8
0
   10
26.722385
   20
-0.413905
   30
0.000000
   0
VERTEX
  8
0
   10
26.768688
   20
-0.413099
   30
0.000000
   0
VERTEX
  8
0
   10
26.814987
   20
-0.412062
   30
0.000000
   0
VERTEX
  8
0
   10
26.861280
   20
-0.410617
   30
0.000000
   0
VERTEX
  8
0
   10
26.907558
   20
-0.408584
   30
0.000000
   0
VERTEX
  8
0
   10
26.953806
   20
-0.405781
   30
0.000000
   0
VERTEX
  8
0
   10
27.000000
   20
-0.402027
   30
0.000000
   0
VERTEX
  8
0
   10
27.000000
   20
-0.458988
   30
0.000000
    0
SEQEND
    8
0
    0
ENDSEC
    0
EOF

